<?xml version="1.0" standalone="no"?>
<!DOCTYPE svg PUBLIC "-//W3C//DTD SVG 20010904//EN"
 "http://www.w3.org/TR/2001/REC-SVG-20010904/DTD/svg10.dtd">
<svg version="1.0" xmlns="http://www.w3.org/2000/svg"
 width="1194.000000pt" height="1194.000000pt" viewBox="0 0 1194.000000 1194.000000"
 preserveAspectRatio="xMidYMid meet">
<metadata>
Created by potrace 1.11, written by Peter Selinger 2001-2013
</metadata>
<g transform="translate(0.000000,1194.000000) scale(0.100000,-0.100000)"
fill="#000000" stroke="none">
<path d="M5650 11929 c-1295 -67 -2537 -563 -3550 -1417 -161 -136 -536 -511
-672 -672 -555 -659 -963 -1418 -1193 -2220 -214 -749 -282 -1550 -195 -2315
136 -1191 608 -2279 1388 -3205 136 -161 512 -536 672 -672 646 -543 1369
-938 2152 -1173 764 -230 1595 -304 2383 -215 1187 136 2252 595 3190 1376
162 135 536 507 679 675 558 658 970 1424 1201 2229 308 1077 308 2223 0 3300
-245 857 -692 1661 -1296 2335 -746 831 -1724 1445 -2789 1750 -638 183 -1305
258 -1970 224z m2936 -1194 c209 -62 228 -355 29 -446 -50 -23 -142 -25 -193
-3 -128 53 -184 210 -117 332 32 59 79 99 139 118 55 17 83 17 142 -1z m-3829
-140 c332 -89 713 -293 987 -528 31 -27 35 -34 20 -34 -10 0 -27 6 -36 14 -9
8 -22 13 -28 11 -6 -2 37 -47 94 -101 l106 -98 73 11 c40 6 98 18 128 26 29 8
110 18 179 21 259 11 413 -54 600 -254 47 -50 126 -155 185 -244 l104 -156
103 -63 c131 -81 200 -151 316 -323 125 -185 143 -203 231 -243 134 -62 190
-122 242 -265 72 -198 88 -504 32 -618 l-18 -36 76 -75 c54 -53 86 -95 109
-142 30 -61 32 -73 29 -146 -3 -65 -9 -86 -31 -119 -36 -54 -99 -84 -191 -91
-69 -5 -71 -6 -125 -59 -116 -114 -384 -314 -497 -371 -33 -16 -126 -57 -206
-91 l-145 -61 -47 -64 c-113 -153 -285 -280 -479 -353 -67 -25 -126 -49 -130
-52 -4 -4 17 -33 46 -66 107 -121 199 -282 246 -430 27 -87 38 -242 18 -267
-23 -31 -76 -6 -173 82 -169 155 -414 316 -560 369 -176 63 -316 29 -502 -122
-206 -166 -350 -462 -420 -862 -27 -156 -24 -555 5 -733 74 -451 223 -799 437
-1017 125 -128 282 -230 414 -269 70 -20 208 -21 286 -1 93 25 177 76 360 221
195 155 317 240 427 295 261 131 506 196 783 206 308 11 562 -64 720 -212 46
-43 49 -47 32 -60 -15 -11 -24 -10 -60 10 -76 43 -189 58 -381 52 -616 -18
-1239 -350 -1481 -789 -116 -211 -110 -409 20 -683 198 -416 755 -912 1078
-960 41 -6 46 -9 35 -22 -25 -31 -261 8 -452 74 -308 106 -591 285 -831 527
-160 162 -210 231 -365 516 -143 262 -185 326 -235 364 -24 19 -94 45 -215 82
-391 117 -723 277 -1040 500 -582 408 -1054 999 -1330 1665 l-52 127 -31 -9
c-17 -5 -35 -13 -41 -19 -15 -15 -36 -12 -36 5 0 9 9 33 20 55 23 45 16 54
-36 44 l-37 -7 6 62 7 61 -33 -2 c-35 -3 -34 -7 -21 72 5 28 1 39 -15 54 -18
16 -25 17 -47 8 -13 -7 -31 -12 -39 -12 -23 0 -27 41 -10 89 19 55 20 110 1
117 -8 3 -29 -2 -46 -11 -17 -9 -38 -14 -46 -11 -21 8 -18 82 6 152 19 55 20
60 3 71 -21 16 -32 16 -63 -2 -46 -26 -50 -21 -50 60 0 87 -11 100 -60 65 -45
-32 -63 -21 -58 39 2 32 -1 47 -7 42 -5 -4 -57 -43 -115 -86 -57 -44 -149
-118 -205 -165 -107 -93 -132 -110 -163 -110 -27 0 -31 16 -22 96 16 149 134
374 333 634 54 71 84 120 93 152 12 47 39 93 69 118 8 7 15 16 15 21 0 11 -52
35 -92 43 -55 12 -54 86 3 198 11 21 19 46 19 58 0 18 -6 20 -64 20 -39 0 -67
5 -73 13 -35 44 -19 125 48 234 35 58 49 91 47 110 -3 30 -11 32 -94 18 -52
-9 -59 0 -56 84 4 150 36 238 117 329 67 74 59 87 -47 77 l-81 -7 5 70 c8 109
46 178 157 287 122 119 125 132 36 155 -22 6 -45 13 -52 15 -9 3 -5 21 14 62
15 32 30 60 35 61 4 2 6 8 2 13 -3 5 0 9 6 9 6 0 8 5 5 10 -3 6 -2 10 2 10 8
0 63 99 63 114 0 4 5 12 10 19 6 7 19 24 31 40 11 15 30 27 42 28 21 1 21 1
-1 7 -31 9 -31 13 -4 42 12 13 22 30 22 37 0 8 9 23 20 35 11 12 20 30 20 40
0 10 4 18 9 18 5 0 13 10 17 22 3 12 14 29 23 39 9 10 30 44 46 76 17 32 32
60 35 63 15 14 90 136 90 147 0 7 4 13 9 13 5 0 19 16 31 35 20 32 25 35 73
36 l52 1 -40 10 c-22 6 -42 12 -44 14 -2 2 26 46 63 98 36 53 64 96 61 96 -3
0 4 10 15 23 28 29 63 77 56 77 -3 0 6 12 19 26 14 15 25 32 25 38 0 6 9 17
20 24 12 7 18 17 15 21 -3 5 14 7 37 5 39 -4 39 0 0 12 -16 5 -2 34 46 92 19
22 33 44 32 47 0 3 9 15 22 25 13 11 19 19 15 20 -4 0 4 11 19 25 15 14 23 25
19 25 -5 0 -2 6 6 13 9 6 35 37 60 67 24 30 47 57 52 58 4 2 5 7 2 11 -2 5 15
5 38 0 62 -12 66 -10 23 9 -37 17 -38 18 -22 35 10 9 15 17 12 17 -3 0 8 14
26 30 17 17 28 30 25 30 -3 0 9 15 28 33 19 19 32 36 29 40 -10 10 37 19 74
14 l37 -6 -32 11 c-38 13 -40 21 -13 48 11 11 18 20 16 20 -2 0 24 28 58 62
33 34 54 58 46 53 -8 -4 -13 -6 -10 -4 3 3 44 42 91 87 l86 83 48 -11 c60 -13
71 -6 16 11 -23 7 -41 15 -41 19 0 4 43 49 95 99 53 51 90 90 83 86 -7 -3 -4
0 6 7 11 7 36 28 55 45 l36 33 105 -5 c66 -3 139 -14 197 -30z m4678 -824 c75
-37 147 -111 181 -185 73 -161 15 -356 -136 -458 -70 -47 -127 -63 -218 -62
-62 1 -83 6 -146 38 -311 153 -269 597 64 691 82 22 179 13 255 -24z m-249
-1132 c277 -50 462 -331 403 -611 -39 -182 -199 -346 -379 -387 -58 -13 -182
-13 -240 0 -220 51 -390 266 -390 494 0 133 48 253 138 347 130 137 288 190
468 157z"/>
<path d="M5094 9955 c-22 -17 -27 -11 86 -99 43 -33 59 -51 50 -56 -10 -6 -9
-9 1 -14 8 -3 4 -3 -9 0 -31 8 -84 -5 -76 -18 5 -7 2 -8 -6 -3 -16 10 -91 -15
-83 -28 3 -6 1 -7 -6 -3 -16 10 -53 -3 -45 -16 4 -7 2 -8 -4 -4 -12 7 -163
-64 -157 -74 12 -19 -47 -4 -103 26 -72 38 -84 40 -101 21 -8 -11 2 -23 49
-57 l60 -43 -40 -27 c-22 -15 -37 -30 -33 -35 5 -4 3 -6 -3 -2 -5 3 -39 -16
-74 -43 l-63 -50 -51 30 c-48 27 -77 33 -91 18 -3 -3 14 -23 39 -43 26 -21 46
-40 46 -44 -1 -3 -19 -26 -42 -51 -23 -25 -38 -38 -33 -30 4 8 -42 -34 -102
-93 l-109 -108 -48 21 c-38 16 -52 18 -63 9 -11 -10 -6 -17 32 -42 l46 -30
-43 -44 c-23 -23 -40 -43 -37 -43 3 0 -19 -26 -48 -57 -29 -31 -51 -59 -48
-61 2 -3 -7 -14 -21 -24 -14 -11 -23 -22 -21 -24 2 -3 -12 -23 -32 -45 l-37
-40 -47 21 c-26 12 -52 18 -57 15 -18 -11 -10 -34 18 -49 58 -32 58 -31 28
-70 -15 -20 -23 -36 -19 -36 4 0 0 -5 -10 -11 -9 -6 -15 -14 -12 -20 4 -5 2
-9 -3 -9 -10 0 -139 -190 -134 -197 1 -1 -6 -11 -17 -22 -10 -10 -20 -24 -22
-30 -3 -8 -18 -9 -58 -1 -29 5 -57 7 -62 4 -20 -12 -7 -30 34 -45 27 -10 41
-20 38 -29 -2 -8 -4 -21 -4 -27 0 -7 -3 -13 -7 -13 -10 0 -40 -57 -33 -64 3
-3 2 -6 -3 -6 -13 0 -55 -75 -47 -84 3 -3 2 -6 -3 -6 -6 0 -25 -31 -44 -70
l-33 -69 -50 2 c-62 3 -72 -15 -16 -32 32 -10 39 -16 34 -29 -4 -9 -8 -23 -8
-29 0 -7 -4 -13 -9 -13 -5 0 -6 -4 -3 -10 3 -5 2 -10 -4 -10 -8 0 -34 -60 -34
-80 0 -3 -7 -11 -14 -18 -11 -12 -15 -26 -12 -48 0 -4 -4 -10 -9 -13 -6 -3
-12 -15 -14 -26 -1 -11 -7 -23 -11 -26 -4 -3 -9 -16 -10 -27 -1 -12 -5 -22 -9
-22 -4 0 -8 -7 -8 -15 0 -12 -13 -15 -55 -15 -41 0 -55 -4 -55 -14 0 -9 15
-17 39 -21 27 -4 41 -13 44 -26 3 -10 2 -19 -2 -19 -10 0 -41 -101 -35 -112 3
-4 0 -8 -6 -8 -7 0 -10 -6 -7 -14 3 -8 2 -16 -3 -18 -5 -2 -10 -16 -12 -33 -2
-16 -6 -32 -9 -35 -3 -3 -9 -17 -13 -32 -5 -21 -2 -30 13 -38 18 -9 21 -6 31
32 23 89 113 348 161 462 295 702 788 1302 1413 1720 78 52 164 106 191 122
163 90 223 121 338 175 70 32 133 59 140 59 7 0 21 6 32 14 11 8 39 19 63 26
23 7 42 17 42 21 0 5 8 6 18 2 13 -5 14 -3 5 7 -14 15 -114 40 -162 40 -23 0
-44 8 -60 24 -32 29 -180 136 -190 136 -4 0 -16 -7 -27 -15z m283 -161 c-3 -3
-12 -4 -19 -1 -8 3 -5 6 6 6 11 1 17 -2 13 -5z"/>
<path d="M2738 8353 c6 -2 18 -2 25 0 6 3 1 5 -13 5 -14 0 -19 -2 -12 -5z"/>
<path d="M3077 7088 c-9 -7 -18 -29 -19 -48 -2 -19 -6 -38 -10 -41 -5 -3 -9
-28 -10 -57 -2 -29 -7 -52 -12 -52 -4 0 -6 -16 -4 -35 2 -19 0 -35 -4 -35 -4
0 -8 -13 -8 -30 0 -20 5 -30 15 -30 8 0 15 1 15 3 0 5 59 285 65 310 8 29 -2
34 -28 15z"/>
<path d="M3001 6638 c1 -89 10 -79 23 25 6 48 5 57 -8 57 -13 0 -16 -14 -15
-82z"/>
</g>
</svg>
