<?xml version="1.0" encoding="utf-8"?>
<!-- Generator: Adobe Illustrator 16.0.0, SVG Export Plug-In . SVG Version: 6.00 Build 0)  -->
<!DOCTYPE svg PUBLIC "-//W3C//DTD SVG 1.1//EN" "http://www.w3.org/Graphics/SVG/1.1/DTD/svg11.dtd">
<svg version="1.1" id="Layer_1" xmlns="http://www.w3.org/2000/svg" xmlns:xlink="http://www.w3.org/1999/xlink" x="0px" y="0px"
	 width="386.749px" height="512px" viewBox="0 0 386.749 512" enable-background="new 0 0 386.749 512" xml:space="preserve">
<g>
	<path fill="#414042" d="M368.281,109.84c-13.288-5.492-28.513,0.823-34.005,14.108c-5.492,13.289,0.832,28.513,14.117,34.005
		c13.289,5.489,28.51-0.825,34.002-14.117C387.884,130.553,381.567,115.332,368.281,109.84z M350.961,127.979
		c-3.095,0-5.604-2.507-5.604-5.601s2.51-5.604,5.604-5.604c3.094,0,5.604,2.51,5.604,5.604S354.055,127.979,350.961,127.979z"/>
	<path fill="#414042" d="M375.074,49.696c-9.639-3.986-20.684,0.596-24.666,10.234c-3.983,9.639,0.604,20.68,10.24,24.666
		c9.638,3.98,20.68-0.599,24.666-10.24C389.293,64.721,384.708,53.679,375.074,49.696z M362.51,62.852
		c-2.243,0-4.064-1.817-4.064-4.062c0-2.244,1.821-4.064,4.064-4.064c2.244,0,4.065,1.821,4.065,4.064
		C366.576,61.034,364.754,62.852,362.51,62.852z"/>
	<path fill="#414042" d="M333.363,0.924c-6.188-2.559-13.276,0.381-15.835,6.569c-2.556,6.188,0.387,13.276,6.574,15.835
		c6.188,2.556,13.277-0.384,15.835-6.575C342.493,10.568,339.55,3.479,333.363,0.924z M325.3,9.371c-1.442,0-2.613-1.167-2.613-2.61
		c0-1.439,1.171-2.607,2.613-2.607c1.439,0,2.606,1.167,2.606,2.607C327.907,8.203,326.74,9.371,325.3,9.371z"/>
	<path fill="#424143" d="M37.305,211.697c0.617-4.283,1.191-7.071,1.385-7.972c1.397-7.93,3.242-15.787,5.456-23.296
		c3.342-11.338,7.685-22.482,12.896-33.116c23.595-48.086,63.803-84.658,113.21-103.006c6.266-2.111,12.581-3.85,18.95-5.256
		c-0.387-0.335-0.711-0.653-1.095-0.983c-0.483-0.411-0.961-0.801-1.437-1.201c-0.698-0.593-1.418-1.167-2.156-1.769
		C132.437-7.057,80.365,7.456,80.365,7.456c0.568-0.1,1.125-0.16,1.69-0.251c-0.496,0.221-0.819,0.499-0.871,0.774
		c3.221,1.938,10.498,8.84,9.717,10.86c-0.048,1.035-13.379,0.493-17.48,1.703c-4.506,1.098-12.823,4.902-13.857,8.06
		c3.795,1.69,7.47,4.866,7.452,6.681c-0.073,1.013-10.289,0.832-12.209,4.597c1.854,1.037,7.905,3.048,8.117,5.589
		c-0.596,1.963-4.818,2.105-7.449,2.722c-6.218,1.434-8.828,2.441-12.481,5.471c-1.944,1.624-5.658,8.377-4.92,9.197
		c0.293,0.547,4.424-0.151,7.431,1.089c7.815,3.309,4.413,4.76-1.358,8.531c-2.528,1.833-5.758,3.614-7.337,5.695
		c-1.923,2.277-8.362,10.482-4.01,12.795c2.601,1.334,7.633,1.845,7.633,3.097c0.172,1.442-9.363,9.033-10.627,10.642
		c-2.997,3.454-7.896,8.755-7.24,13.878c0.871,6.23,9.841,4.812,1.561,12.233c-1.905,1.863-3.502,3.26-5.232,5.334
		c-1.418,1.818-3.626,6.59-2.371,7.673c2.117,0.956,9.133,1.231,9.454,3.036c0.306,1.712-6.671,7.292-8.855,9.678
		c-5.093,5.568-5.326,14.444-4.416,14.904c1.358,0.26,2.541-0.172,3.747-0.529c1.449-0.402,2.967-0.681,4.939,0.459
		c0.586,1.24-0.505,1.6-1.406,2.64c-1.449,1.712-3.747,3.95-5.15,7.192c-1.228,2.719-2.583,12.015-1.651,14.804
		c2.247,1.394,6.254-1.842,7.548-0.018c2.008,4.201-8.096,10.385-5.334,18.457c0.72,2.05,5.48,0.239,6.986,1.149
		c2.722,1.639-4.524,8.295-2.458,12.693c5.06-5.704,9.208-9.875,9.484-10.123C31.444,216.237,34.002,214.177,37.305,211.697z"/>
	<path fill="#424143" d="M325.996,382.734c-5.58-3.898-12.859-6.432-21.176-7.529c-7.784-1.014-16.482-0.75-25.519,0.99
		c-4.585,0.881-9.264,2.1-13.96,3.738c-3.248,1.111-6.357,2.381-9.346,3.771c-5.11,2.381-9.828,5.102-14.057,8.084
		c-1.682,1.189-3.312,2.428-4.851,3.678c-0.91,0.787-11.347,9.115-13.005,10.203c-4.898,3.984-10.428,6.477-16.409,7.117
		c-0.143,0.008-0.314,0.008-0.457,0.021c-3.105,0.287-6.193,0.051-9.232-0.676c-7.346-3.135-14.13-7.303-20.233-12.281
		c-12.611-12.961-22.167-34.432-24.98-59.529c-0.03-0.309-0.084-0.623-0.121-0.932c-3.07-29.299,3.883-55.84,16.73-70.746
		c1.506-1.752,3.067-3.32,4.736-4.736c2.026-1.824,4.76-3.695,7.966-5.568c0.478-0.27,1.013-0.557,1.542-0.828
		c1.424-0.599,2.882-1.11,4.421-1.458c0.414-0.224,2.673-0.484,2.673-0.484c0.16-0.03,0.333-0.069,0.505-0.091
		c11.925-1.33,36.116,18.839,36.116,18.839c2.984,2.869,6.783,7.303,10.549,6.617c0.456-1.373,0.668-2.887,0.677-4.467
		c0.185-6.648-2.976-14.936-6.974-21.869l-0.021-0.03l-0.03-0.045c-2.398-4.113-5.068-7.742-7.548-10.283
		c-0.721-0.735-1.755-1.824-2.855-2.885c0.079-0.021,0.17-0.051,0.229-0.079c7.38-2.722,12.917-4.669,14.133-5.395l0.021-0.009
		l0.009-0.009c5.771-3.442,11.622-7.76,14.658-11.25c1.963-2.014,5.365-6.944,5.707-7.376c0.811-1.128,19.546-7.192,25.419-12.527
		c4.748-2.9,20.154-15.182,20.831-17.414c7.846,0.233,15.062-1.569,15.557-10.954c0-0.039,0-0.09,0-0.13c0,0,0-0.015,0-0.027
		c0.225-6.233-5.068-12.956-8.289-15.415c0,0-1.579-1.173-3.372-2.743v-0.012c0.487-0.521,0.932-1.18,1.318-2
		c1.648-3.399,1.882-11.882,1.718-14.513c-0.483-8.525-3.205-21.052-8.419-26.082c-2.795-2.682-5.74-4.007-9.194-5.359
		c-3.792-1.545-7.6-8.166-11.274-13.788l-0.009-0.03c-0.475-0.738-3.856-5.471-4.933-6.514c-2.641-2.9-3.793-4.019-7.882-6.702
		c-8.201-5.359-5.903-1.781-14.093-14.74l-2.954-4.47c-0.983-1.331-7.625-8.564-8.139-9.084l-0.03-0.03l-0.03-0.021
		c-3.006-2.849-7.827-6.103-11.153-7.621c-0.793-0.33-7.93-2.011-10.416-2.232c-5.425-0.462-10.204,0.061-13.767,0.798
		c-0.538,0.103-3.907,0.932-3.907,0.932c-1.893,0.278-3.777,0.629-5.67,0.971c-8.027,1.488-15.881,3.514-23.514,6.07
		C126.706,71.047,88.128,106.45,65.93,151.687c-4.92,10.05-9.048,20.598-12.278,31.552c-2.166,7.313-3.898,14.792-5.223,22.425
		c0,0-0.979,4.192-1.842,11.474c-4.222,3.121-7.936,5.921-10.183,8.042c0,0-8.849,8.837-16.328,18.327
		c-6.62,8.374-13.806,18.681-17.513,27.863c-0.018,0.061-0.048,0.15-0.07,0.205c-2.501,5.275-2.38,8.738-2.45,10.797
		c0-0.043-0.009-0.09-0.009-0.133c0,0.061-0.314,2.006,0.961,2.193c0.03,0,0.042,0.008,0.061,0.02
		c0.164,0.01,0.333,0.01,0.544-0.041c0.115-0.02,0.254-0.066,0.396-0.115c0.052-0.021,0.1-0.021,0.143-0.043
		c0.617-0.221,1.379-0.602,2.316-1.213c0.335-0.309,4.101-3.816,10.043-8.609c0.336-0.271,0.617-0.572,0.932-0.842
		c0.342-0.221,0.687-0.459,1.022-0.713c2.61-2.029,5.568-4.25,8.768-6.518c0.32-0.244,0.687-0.563,1.113-0.953
		c3.502-2.438,7.258-4.898,11.202-7.26c0.012,0.068,0.012,0.129,0.012,0.172c2.683-1.576,5.447-3.073,8.229-4.485
		c0.496,7.382,1.406,15.337,2.976,23.737c1.315,7.086,5.235,21.838,5.386,22.32c1.397,4.59,2.964,9.113,4.667,13.572
		c21.236,55.598,65.817,99.994,122.126,116.93c3.178,0.949,10.476,3.082,10.537,3.113c2.078,1.061,4.031,2.57,5.295,4.238
		c0.841,1.098,2.338,3.225,2.985,4.387c6.146,10.959,10.791,19.623,10.945,19.863c1.143,2.07,2.386,4.119,3.804,6.184
		c1.984,2.9,4.24,5.771,6.732,8.584c6.052,6.805,13.561,13.27,22.276,18.912c0.689,0.463,1.389,0.893,2.087,1.313
		c4.908,3.043,9.878,5.645,14.831,7.764c5.746,2.459,11.426,4.322,16.902,5.545c4.31,0.934,8.492,1.527,12.451,1.707
		c0.587-0.281,1.053-0.691,1.307-1.279c-1.053,0.02-2.168-0.111-3.342-0.344c-0.405-0.037-0.729-0.105-1.043-0.227
		c-19.029-4.941-52.221-35.121-57.758-61.793c-1.307-6.189-1.113-12.203,1.104-17.654c1.77-4.371,4.18-8.396,7.044-12.125
		c0.737-0.975,1.479-1.93,2.269-2.861c14.22-16.523,37.797-26.592,58.214-29.83c13.321-2.121,25.295-1.332,32.423,2.49
		c0.121,0.061,0.1,0.289,0.16,0.439c0.215-0.031,0.505-0.1,0.992-0.248c0.245-0.191,0.436-0.408,0.547-0.65
		C330.073,385.998,328.17,384.258,325.996,382.734z M62.358,317.08c0.049,0,0.1,0,0.139-0.006h0.012
		C62.458,317.08,62.407,317.08,62.358,317.08z M196.629,188.102l-1.627-1.013c0.402,0.133,0.808,0.351,1.204,0.441
		C196.551,187.591,196.629,187.839,196.629,188.102z M179.839,177.674l-0.206-0.408c1.802,1.291,3.351,2.241,3.605,2.438
		c0.172,0.124,0.387,0.29,0.568,0.432L179.839,177.674z M307.481,161.736c1.062,1.034,3.887,3.396,5.465,5.897
		c2.005,3.109,2.886,6.877,2.641,9.221c-0.898,8.453-10.344,8.504-16.253,7.152c-3.091-0.892-6.541-1.793-9.496-2.683
		c-3.614-1.336-6.72-1.569-10.186-2.676c-8.196-2.244-12.448-3.802-21.793-2.916c-7.539,0.671-14.263,2.014-20.994,3.817
		l-19.664,5.141c-5.58,1.548-16.573,1.999-22.138,0c-4.264-1.576-13.506-8.716-14.71-9.687c13.633-0.112,5.973,8.912,28.171,3.811
		c1.122-0.227,6.753-2.35,7.694-2.659c4.545-1.521,17.54-7.845,17.54-7.845c8.029-3.802,18.028-6.033,27.869-7.149
		c5.413-0.674,11.316-0.901,16.729-0.451c17.535,1.781,15.732,2.9,20.48,4.458c1.67,0.683,4.706,1.742,6.496,1.313
		c0.345-0.103,1.195-0.711,0.242-1.458c-0.756-0.593-3.115-0.012-5.201-1.321c0.436-2.344,2.116-2.973,3.864-4.152L307.481,161.736z
		 M212.786,161.83c1.125-1.343,1.781-2.68,2.937-4.243c3.916-6.251,7.539-10.942,11.628-17.653
		c2.147-3.357,9.354-11.849,11.976-13.848c0,0,6.186-6.261,9.851-8.492c3.046-1.848,5.719-3.021,8.828-4.794
		c9.828-5.606,29.202-3.472,37.229,1.443c1.82,1.119,2.631,2.011,3.946,3.351c3.281,3.342,4.262,7.373,6.063,14.976
		c0.496,2.141,1.416,5.952,1.458,10.542c0.043,5.87-0.453,11.725-2.773,14.317c-0.656-1.352-1.225-7.313-2.138-10.273
		c-1.252-4.104-4.37-11.093-7.386-13.818c-10.022-8.982-19.101-9.914-30.572-8.574c-3.623,0.441-7.672,1.554-10.851,2.613
		c-4.615,1.527-11.429,5.471-13.564,7.261c-3.036,1.884-9.1,9.384-9.919,10.277l-9.515,13.173
		c-0.982,0.901-13.797,19.616-29.508,17.644c-0.251-0.157-0.402-0.239-0.475-0.29c0-0.03,0-0.061-0.021-0.106
		c0.021-0.018,0.021-0.07,0.021-0.112c8.846-0.221,13.434-2.45,19.494-9.373C210.813,164.289,211.449,163.611,212.786,161.83z
		 M207.632,152.416c0.577,1.228,0.883,2.549,0.892,3.901c0,0.121-0.009,0.254-0.009,0.381c0,0.061,0.009,0.121,0.009,0.19
		c0,0.33-0.039,0.638-0.061,0.968c-0.414,5.958-4.878,10.754-10.66,11.677c-0.575,0.121-3.632,0.16-4.564-0.082
		c-5.792-1.18-10.143-6.291-10.143-12.436c0-7.01,5.701-12.692,12.705-12.692C201.184,144.323,205.781,147.683,207.632,152.416z"/>
</g>
</svg>
