<?xml version="1.0" encoding="utf-8"?>
<!-- Generator: Adobe Illustrator 16.0.0, SVG Export Plug-In . SVG Version: 6.00 Build 0)  -->
<!DOCTYPE svg PUBLIC "-//W3C//DTD SVG 1.1//EN" "http://www.w3.org/Graphics/SVG/1.1/DTD/svg11.dtd">
<svg version="1.1" id="Layer_1" xmlns="http://www.w3.org/2000/svg" xmlns:xlink="http://www.w3.org/1999/xlink" x="0px" y="0px"
	 width="347.15px" height="283.1px" viewBox="0 0 347.15 283.1" enable-background="new 0 0 347.15 283.1" xml:space="preserve">
<radialGradient id="SVGID_1_" cx="2242.7676" cy="144.334" r="26.6445" gradientTransform="matrix(-0.7216 -0.6923 -0.5089 0.5305 1807.6084 1620.4033)" gradientUnits="userSpaceOnUse">
	<stop  offset="0" style="stop-color:#083E3E"/>
	<stop  offset="0.2844" style="stop-color:#16564C"/>
	<stop  offset="0.5764" style="stop-color:#206B56"/>
	<stop  offset="0.8253" style="stop-color:#26785B"/>
	<stop  offset="1" style="stop-color:#287D5D"/>
</radialGradient>
<path fill="url(#SVGID_1_)" d="M125.025,133.597c1.383,1.411,2.884,3.444,4.218,5.744l0.013,0.015l0.01,0.027
	c2.239,3.868,4.001,8.489,3.902,12.208c-0.015,0.891-0.131,1.729-0.379,2.494c-2.1,0.391-4.227-2.086-5.89-3.695
	c0,0-13.513-11.267-20.167-10.515c-0.097,0.009-0.192,0.031-0.289,0.044c0,0-1.262,0.147-1.492,0.271
	c-1.221,0.28-2.397,0.712-3.533,1.265c6.155-3.58,15.356-7.107,21.941-9.535C124.006,132.535,124.608,133.168,125.025,133.597z"/>
<radialGradient id="SVGID_2_" cx="2184.5693" cy="84.6089" r="126.353" gradientTransform="matrix(-1 0 0 1 2358.4883 0)" gradientUnits="userSpaceOnUse">
	<stop  offset="0" style="stop-color:#2371B9"/>
	<stop  offset="0.1394" style="stop-color:#236697"/>
	<stop  offset="0.3356" style="stop-color:#1E5874"/>
	<stop  offset="0.5252" style="stop-color:#164D5B"/>
	<stop  offset="0.7037" style="stop-color:#0F454B"/>
	<stop  offset="0.8667" style="stop-color:#0A4042"/>
	<stop  offset="1" style="stop-color:#083E3E"/>
</radialGradient>
<path fill="url(#SVGID_2_)" d="M171.754,73.767l0.118,8.515l-1.854,3.239l1.072,1.129l1.71,0.783l1.98,2.892l1.755,2.755
	l-0.095,5.569l-2.379,1.275l-5.304,1.407l-4.278-1.407c0,0-10.709-0.123-11.556,0c-0.845,0.122-8.736,0-8.736,0l-20.101,2.837
	l-13.205-1.17l-8.079-4.504l-2.864-4.254h8.03l4.278-0.191l4.206-4.341l1.879-6.211l1.153-5.542l8.12-7.823l5.879-7.408l5.347-4.981
	l12.402-1.001l10.427,2.991l6.513,4.188l3.58,11.25V73.767z"/>
<polygon fill="#005A95" points="131.504,117.413 119.444,108.446 110.839,102.04 105.638,98.486 98.755,93.283 95.918,79.721 
	102.761,68.038 107.924,61.766 98.755,61.766 86.242,66.463 80.62,86.749 78.751,97.537 81.651,106.265 92.379,112.878 
	100.055,117.413 112.248,121.215 122.22,121.45 "/>
<radialGradient id="SVGID_3_" cx="2295.0654" cy="64.8042" r="76.7894" gradientTransform="matrix(-0.8471 -0.5313 -1.2654 2.0177 2092.2656 1169.2648)" gradientUnits="userSpaceOnUse">
	<stop  offset="0" style="stop-color:#010101"/>
	<stop  offset="0.1139" style="stop-color:#030304"/>
	<stop  offset="0.1709" style="stop-color:#080A0C"/>
	<stop  offset="0.2153" style="stop-color:#0F1317"/>
	<stop  offset="0.2533" style="stop-color:#161D24"/>
	<stop  offset="0.287" style="stop-color:#1B2631"/>
	<stop  offset="0.3178" style="stop-color:#1E3041"/>
	<stop  offset="0.3463" style="stop-color:#1E3B54"/>
	<stop  offset="0.3724" style="stop-color:#15476B"/>
	<stop  offset="0.3842" style="stop-color:#074C77"/>
	<stop  offset="0.3917" style="stop-color:#0C517F"/>
	<stop  offset="0.4151" style="stop-color:#185E95"/>
	<stop  offset="0.4383" style="stop-color:#1F68A6"/>
	<stop  offset="0.461" style="stop-color:#226FB3"/>
	<stop  offset="0.4828" style="stop-color:#2371B9"/>
	<stop  offset="0.5095" style="stop-color:#226FB3"/>
	<stop  offset="0.5382" style="stop-color:#1F68A6"/>
	<stop  offset="0.5679" style="stop-color:#185E94"/>
	<stop  offset="0.5982" style="stop-color:#0B507D"/>
	<stop  offset="0.6059" style="stop-color:#074C77"/>
	<stop  offset="0.6125" style="stop-color:#0F4A71"/>
	<stop  offset="0.6434" style="stop-color:#1D3E59"/>
	<stop  offset="0.6767" style="stop-color:#1F3244"/>
	<stop  offset="0.7121" style="stop-color:#1C2833"/>
	<stop  offset="0.7503" style="stop-color:#171E25"/>
	<stop  offset="0.7924" style="stop-color:#101418"/>
	<stop  offset="0.8403" style="stop-color:#080B0D"/>
	<stop  offset="0.899" style="stop-color:#030304"/>
	<stop  offset="1" style="stop-color:#010101"/>
</radialGradient>
<path fill="url(#SVGID_3_)" d="M11.166,94.364c0.5-0.58,1.099-0.785,0.779-1.473c-1.111-0.637-1.951-0.481-2.753-0.256
	c-0.682,0.196-1.336,0.439-2.1,0.292c-0.509-0.257-0.369-5.208,2.469-8.319c1.217-1.332,5.114-4.452,4.944-5.407
	c-0.181-1.008-4.105-1.163-5.274-1.698C8.53,76.9,9.76,74.242,10.548,73.217c0.969-1.155,1.857-1.934,2.925-2.969
	c4.623-4.15-0.388-3.356-0.87-6.836c-0.372-2.857,2.368-5.821,4.044-7.75c0.703-0.898,6.029-5.141,5.937-5.941
	c0-0.698-2.813-0.988-4.272-1.729c-2.424-1.291,1.163-5.872,2.251-7.152c0.876-1.154,2.674-2.149,4.089-3.17
	c3.229-2.107,5.123-2.919,0.757-4.77c-1.676-0.691-3.979-0.3-4.144-0.608c-0.421-0.458,1.667-4.224,2.738-5.133
	c2.047-1.693,3.505-2.255,6.97-3.058c1.474-0.341,3.83-0.417,4.164-1.512c-0.117-1.421-3.501-2.542-4.528-3.131
	c1.072-2.094,6.768-1.994,6.813-2.563c0.009-1.015-2.037-2.783-4.159-3.729c0.582-1.768,5.222-3.887,7.728-4.503
	c2.303-0.675,9.737-0.374,9.769-0.954c0.433-1.126-3.626-4.977-5.425-6.057c0.05-0.246,0.41-0.476,1.045-0.619
	C52.3-0.235,62.249,0.065,65.533,0.5c22.554,2.993,37.854,15.641,45.221,23.329c-4.481,0.825-8.87,1.952-13.13,3.376
	c-26.26,9.72-47.812,29.469-60.225,54.716c-2.762,5.615-5.074,11.501-6.88,17.611c-1.208,4.08-2.182,8.261-2.927,12.526
	c0,0-4.098,17.314,0.151,40.152c0.721,3.958,2.906,12.197,2.99,12.47c0.777,2.565,1.656,5.086,2.602,7.578
	c-0.908-0.234-2.208,0.013-3.366,1.116c-1.201-0.528,1.191-2.448,0.602-3.677c-0.289-0.363-1.638,0.532-2.1,0.3
	c-1.3-0.457,1.651-5.024-1.499-2.926c-1.185-1.202,1.091-1.855-0.221-3.9c-0.961-1.501-2.208,0.328-2.807,0.014
	c-1.228-0.646,0.063-2.658,0.182-3.818c0.138-1.292,0.435-3.5-2.62-1.301c-0.465,0.332-1.712-0.965,0.34-5.968
	c0.203-0.494-1.286-1.558-2.828-0.303c-1.879,1.529-0.306-3.461-0.829-4.118c-1.226-1.08-2.149,1.132-3.172,0.775
	c-1.315-1.196,1.222-5.731,0.987-6.235c-0.446-0.988-1.635-0.36-2.447-0.571c-1.523-1.202,0.257-3.487,0.654-4.574
	c2.683-7.318-1.831-3.347-1.967-4.59c-0.354-5.106,4.432-5.178,1.638-6.58c-0.932-0.468-2.163-0.258-2.642-0.989
	c-1.548-2.443,2.827-6.376,1.264-7.328c-0.848-0.511-3.506,0.501-3.9-0.638c-1.552-4.508,4.098-7.963,2.979-10.313
	c-0.728-1.019-2.968,0.789-4.213,0.016c-0.53-1.566,0.231-6.748,0.912-8.271C9.075,96.57,10.35,95.32,11.166,94.364z"/>
<radialGradient id="SVGID_4_" cx="2214.0264" cy="157.3901" r="291.9076" fx="2181.7209" fy="156.1669" gradientTransform="matrix(-0.8695 -0.4939 -0.5415 0.9533 2154.8008 1100.9088)" gradientUnits="userSpaceOnUse">
	<stop  offset="0.0443" style="stop-color:#EBE334"/>
	<stop  offset="0.094" style="stop-color:#E7E135"/>
	<stop  offset="0.1474" style="stop-color:#DCDB39"/>
	<stop  offset="0.2026" style="stop-color:#C8D23E"/>
	<stop  offset="0.2585" style="stop-color:#ACC643"/>
	<stop  offset="0.2956" style="stop-color:#96BD46"/>
	<stop  offset="0.3106" style="stop-color:#90B94C"/>
	<stop  offset="0.3337" style="stop-color:#7FB05C"/>
	<stop  offset="0.3618" style="stop-color:#64A272"/>
	<stop  offset="0.3938" style="stop-color:#339288"/>
	<stop  offset="0.399" style="stop-color:#278F8C"/>
	<stop  offset="0.4194" style="stop-color:#298F81"/>
	<stop  offset="0.461" style="stop-color:#2D8F65"/>
	<stop  offset="0.4828" style="stop-color:#2F8F54"/>
	<stop  offset="0.6059" style="stop-color:#2F8F54"/>
	<stop  offset="0.7783" style="stop-color:#489D6C"/>
	<stop  offset="1" style="stop-color:#287D5D"/>
</radialGradient>
<path fill="url(#SVGID_4_)" d="M27.229,152.188c0.726,3.96,2.918,12.196,3.001,12.469c0.779,2.564,1.658,5.089,2.608,7.577
	c11.867,31.042,36.75,55.834,68.19,65.29c1.789,0.537,5.855,1.726,5.898,1.738c1.147,0.602,2.237,1.446,2.949,2.374
	c0.469,0.615,1.307,1.798,1.669,2.442c3.429,6.126,6.022,10.963,6.11,11.102c0.629,1.148,1.336,2.301,2.12,3.447
	c1.108,1.615,2.361,3.22,3.763,4.794c3.375,3.793,7.574,7.413,12.445,10.568c0.385,0.249,0.771,0.489,1.158,0.728
	c2.743,1.698,5.521,3.143,8.284,4.329c3.206,1.38,6.384,2.411,9.448,3.097c2.399,0.531,4.727,0.855,6.941,0.957
	c0.333-0.16,0.59-0.389,0.728-0.722c-0.579,0.021-1.205-0.06-1.853-0.19c-0.24-0.021-0.412-0.05-0.592-0.117
	c-10.634-2.768-29.159-19.617-32.263-34.509c-0.721-3.46-0.609-6.813,0.627-9.86c0.987-2.432,2.329-4.683,3.925-6.771
	c0.414-0.541,0.834-1.077,1.28-1.599c7.932-9.228,21.1-14.845,32.5-16.653c7.439-1.178,14.126-0.741,18.103,1.387
	c0.076,0.04,0.059,0.168,0.09,0.249c0.126-0.019,0.291-0.057,0.559-0.134c0.14-0.115,0.245-0.232,0.305-0.366
	c-0.899-1.077-1.969-2.043-3.19-2.896c-3.104-2.173-7.174-3.596-11.814-4.2c-4.353-0.569-9.205-0.414-14.252,0.546
	c-2.564,0.488-5.177,1.174-7.795,2.083c-1.812,0.631-3.554,1.34-5.223,2.117c-2.852,1.324-5.481,2.848-7.85,4.516
	c-0.941,0.661-1.845,1.344-2.703,2.052c-0.5,0.438-6.34,5.081-7.268,5.692c-2.738,2.223-5.822,3.623-9.163,3.974
	c-0.083,0.008-0.169,0.008-0.252,0.015c-1.737,0.156-3.504,0.167-5.162-0.377c-4.236-1.386-8.05-3.889-11.292-6.864
	c-7.435-6.824-12.383-19.231-13.95-33.236c-0.019-0.172-0.043-0.345-0.062-0.519c-1.719-16.365,2.165-31.182,9.336-39.507
	c0.838-0.973,1.719-1.857,2.643-2.645c1.13-1.021,2.665-2.063,4.449-3.103c6.155-3.579,15.356-7.107,21.942-9.536
	c4.114-1.518,7.209-2.608,7.886-3.01c0,0,0.006-0.003,0.008-0.004c0.004-0.001,0.014-0.009,0.014-0.009
	c3.485-1.559,6.488-4.328,8.179-6.28c1.099-1.122,3.005-3.875,3.19-4.123c0.457-0.624,10.915-4.012,14.19-6.987
	c2.656-1.622,11.261-8.483,11.628-9.73c4.396,0.125,8.424-0.873,8.698-6.113c0.003-0.026-0.002-0.05,0-0.077
	c0-0.005,0-0.009,0-0.014c0.124-3.483-2.832-7.232-4.63-8.607c0,0-0.888-0.656-1.884-1.534c0,0,0,0,0-0.002
	c0.271-0.299,0.525-0.66,0.746-1.12c0.913-1.898,1.044-6.637,0.958-8.106c-0.275-4.759-1.791-11.751-4.714-14.563
	c-1.555-1.496-3.203-2.244-5.127-2.994c-2.127-0.854-4.254-4.56-6.295-7.7l-0.009-0.013c-0.269-0.415-2.158-3.059-2.758-3.64
	c-1.467-1.621-2.108-2.245-4.398-3.743c-4.577-2.993-3.293-0.997-7.871-8.232l-1.648-2.495c-0.551-0.748-4.254-4.789-4.552-5.075
	l-0.013-0.015l-0.017-0.012c-1.679-1.596-4.368-3.412-6.225-4.254c-0.442-0.187-4.425-1.127-5.821-1.247
	c-3.028-0.261-5.695,0.035-7.681,0.442c-0.297,0.061-2.188,0.521-2.188,0.521c-1.059,0.159-2.108,0.352-3.156,0.546
	c-4.481,0.829-8.87,1.958-13.13,3.389c-26.249,9.741-47.782,29.509-60.176,54.768c-2.757,5.616-5.061,11.505-6.865,17.618
	c-1.203,4.081-2.174,8.264-2.916,12.526C27.044,112.037,22.962,129.358,27.229,152.188z M116.441,84.483
	c0,0.07-0.009,0.141-0.012,0.21c0.002,0.036,0.007,0.069,0.007,0.105c0,0.185-0.018,0.365-0.031,0.545
	c-0.221,3.317-2.717,6.005-5.944,6.52c-0.328,0.069-2.027,0.094-2.547-0.046c-3.233-0.659-5.667-3.518-5.667-6.947
	c0-3.916,3.174-7.09,7.093-7.09c3.01,0,5.576,1.881,6.603,4.527C116.265,82.99,116.434,83.725,116.441,84.483z M169.722,85.1
	c-0.367-0.749-0.683-4.082-1.191-5.738c-0.703-2.287-2.444-6.196-4.135-7.711c-5.586-5.014-10.66-5.536-17.067-4.788
	c-2.019,0.25-4.29,0.867-6.058,1.458c-2.58,0.86-6.388,3.061-7.577,4.058c-1.689,1.056-5.083,5.235-5.543,5.736l-5.308,7.36
	c-0.55,0.498-7.702,10.952-16.482,9.854c-0.135-0.094-0.217-0.14-0.259-0.165c0.002-0.016-0.002-0.039-0.007-0.065
	c0.007-0.014,0.009-0.031,0.007-0.056c4.936-0.126,7.498-1.375,10.882-5.239c0.732-0.873,1.097-1.247,1.831-2.246
	c0.641-0.748,1.007-1.497,1.647-2.37c2.196-3.493,4.21-6.112,6.5-9.856c1.188-1.87,5.22-6.611,6.687-7.734
	c0,0,3.446-3.498,5.492-4.74c1.703-1.035,3.197-1.687,4.938-2.68c5.486-3.133,16.303-1.935,20.788,0.809
	c1.007,0.625,1.466,1.123,2.196,1.871c1.834,1.871,2.382,4.116,3.389,8.358c0.279,1.198,0.793,3.328,0.813,5.891
	C171.291,80.385,171.016,83.652,169.722,85.1z M121.287,100.318c-3.113,0.873-9.248,1.124-12.361,0
	c-2.379-0.872-7.539-4.86-8.21-5.397c7.61-0.067,3.334,4.974,15.721,2.119c0.64-0.124,3.771-1.303,4.306-1.481
	c2.543-0.85,9.791-4.38,9.791-4.38c4.485-2.122,10.073-3.369,15.565-3.992c3.021-0.374,6.317-0.5,9.339-0.25
	c9.798,0.998,8.789,1.622,11.444,2.496c0.917,0.373,2.62,0.967,3.621,0.72c0.198-0.048,0.667-0.391,0.135-0.811
	c-0.424-0.331-1.737-0.007-2.911-0.738c0.252-1.305,1.19-1.658,2.163-2.313l1.812,1.216l0,0c0.597,0.582,2.175,1.896,3.056,3.296
	c1.116,1.738,1.604,3.845,1.463,5.15c-0.495,4.721-5.767,4.74-9.063,3.992c-1.736-0.499-3.66-0.999-5.31-1.496
	c-2.015-0.75-3.753-0.875-5.677-1.499c-4.578-1.247-6.958-2.12-12.175-1.621c-4.213,0.374-7.967,1.123-11.721,2.121L121.287,100.318
	z M102.326,97.542c1.924,1.496,4.769,3.864,7.243,4.364c0.484,0.104,0.264,0.88-0.382,0.74c-2.47-0.498-5.885-2.898-7.809-4.395
	c-2.083-1.605-5.416-3.448-5.664-6.247c0.086-0.552,0.962-0.189,0.953-0.016C96.552,94.068,101.941,97.241,102.326,97.542z
	 M84.428,89.564c0.034-1.259,0.264-2.471,0.764-3.466c0.46-0.999,0.982-1.824,1.532-2.696c2.194-3.618,3.596-7.41,6.16-10.652
	c1.921-2.371,3.647-4.303,6.668-5.799c1.037-0.528,4.268-2.789,4.146-1.926c0.257-0.134-2.94,2.014-3.05,2.082
	c-1.962,1.2-4.804,3.374-6.741,6.219c-2.327,3.416-3.528,6.315-5.722,9.933c-0.552,0.873-1.023,1.695-1.482,2.692
	c-0.514,1.02-0.717,2.094-0.744,3.385c-0.036,1.266,0.102,2.752,0.378,3.94c0.55,2.122,1.05,3.071,2.334,4.817
	c1.647,2.495,4.393,4.115,6.132,6.485c1.285,1.748,4.821,4.562,6.65,5.685c7.6,4.616,10.677,5.238,17.637,8.108
	c1.622,0.631,5.912,1.094,5.706,1.515c-0.214,0.441-5.31-0.443-7.104-1.006c-5.603-1.755-9.611-3.058-17.21-7.675
	c-1.831-1.121-5.493-4.116-6.774-5.862c-1.739-2.371-4.486-3.992-6.133-6.487c-1.284-1.747-2.199-3.493-2.749-5.613
	C84.557,92.083,84.404,90.801,84.428,89.564z M34.817,174.258c0.031-0.003,0.059-0.003,0.085-0.006c0.004,0,0.009,0,0.011,0
	C34.882,174.255,34.853,174.255,34.817,174.258z"/>
<g>
	
		<ellipse transform="matrix(-0.4899 -0.8718 0.8718 -0.4899 149.1227 153.4117)" fill="#005A95" cx="119.444" cy="33.078" rx="3.734" ry="4.84"/>
	
		<ellipse transform="matrix(-0.7072 -0.707 0.707 -0.7072 52.7751 284.9654)" fill="#005A95" cx="85.397" cy="131.554" rx="1.679" ry="3.22"/>
	<path fill="#005A95" d="M88.883,34.786c-1.658,0.662-2.59,2.238-2.082,3.521c0.513,1.281,2.275,1.783,3.933,1.119
		c1.663-0.662,2.594-2.238,2.082-3.52C92.307,34.625,90.545,34.122,88.883,34.786z"/>
	
		<ellipse transform="matrix(-0.5629 -0.8265 0.8265 -0.5629 86.2047 163.1389)" fill="#005A95" cx="86.241" cy="58.774" rx="2.575" ry="3.735"/>
	
		<ellipse transform="matrix(-0.4901 -0.8716 0.8716 -0.4901 61.1831 143.0858)" fill="#005A95" cx="72.44" cy="53.648" rx="2.85" ry="3.902"/>
	
		<ellipse transform="matrix(-0.4216 -0.9068 0.9068 -0.4216 26.9734 265.7617)" fill="#005A95" cx="98.245" cy="124.278" rx="2.85" ry="3.902"/>
	
		<ellipse transform="matrix(-0.7593 -0.6508 0.6508 -0.7593 44.9123 170.6059)" fill="#005A95" cx="54.011" cy="76.996" rx="3.423" ry="4.685"/>
	<path fill="#005A95" d="M33.015,99.283c-0.827,1.445-0.64,3.105,0.415,3.709c1.059,0.603,2.582-0.081,3.408-1.526
		c0.825-1.446,0.638-3.107-0.417-3.709C35.365,97.153,33.839,97.836,33.015,99.283z"/>
	<path fill="#005A95" d="M53.532,107.039c-0.873,1.279-0.656,2.946,0.486,3.723c1.14,0.777,2.77,0.37,3.644-0.909
		c0.869-1.279,0.653-2.944-0.487-3.722C56.035,105.355,54.404,105.761,53.532,107.039z"/>
	
		<ellipse transform="matrix(-0.49 -0.8717 0.8717 -0.49 108.7266 151.7473)" fill="#005A95" cx="98.756" cy="44.067" rx="2.851" ry="2.959"/>
	
		<ellipse transform="matrix(-0.4216 -0.9068 0.9068 -0.4216 51.6459 208.6964)" fill="#005A95" cx="92.379" cy="87.878" rx="2.85" ry="3.09"/>
	<path fill="#005A95" d="M33.558,140.868c0.155,1.54,1.395,2.675,2.769,2.537c1.37-0.138,2.356-1.498,2.204-3.038
		c-0.155-1.539-1.395-2.675-2.767-2.537C34.388,137.969,33.402,139.329,33.558,140.868z"/>
	<path fill="#005A95" d="M113.771,44.367c-1.399,0.665-2.05,2.212-1.458,3.459c0.59,1.247,2.205,1.719,3.604,1.053
		c1.396-0.663,2.048-2.213,1.455-3.459C116.781,44.174,115.168,43.703,113.771,44.367z"/>
	
		<ellipse transform="matrix(-0.9601 -0.2798 0.2798 -0.9601 119.0823 309.0306)" fill="#005A95" cx="81.594" cy="146.017" rx="2.851" ry="2.74"/>
	
		<ellipse transform="matrix(-0.9582 0.2862 -0.2862 -0.9582 115.4103 311.7378)" fill="#005A95" cx="34.926" cy="164.302" rx="1.903" ry="2.134"/>
	
		<ellipse transform="matrix(-0.96 -0.2799 0.2799 -0.96 101.8615 326.6147)" fill="#005A95" cx="74.253" cy="156.034" rx="1.872" ry="1.799"/>
	
		<ellipse transform="matrix(-0.9948 0.1022 -0.1022 -0.9948 157.766 324.7497)" fill="#005A95" cx="70.561" cy="166.418" rx="1.872" ry="2.472"/>
	<path fill="#005A95" d="M115.878,125.641c-0.965,0.437-1.488,1.361-1.168,2.063c0.318,0.704,1.357,0.921,2.321,0.485
		c0.962-0.436,1.482-1.36,1.167-2.064C117.877,125.422,116.837,125.206,115.878,125.641z"/>
	<path fill="#005A95" d="M94.121,134.343c-0.278,0.953,0.301,1.961,1.295,2.25c0.991,0.29,2.019-0.249,2.297-1.203
		c0.28-0.954-0.301-1.962-1.293-2.25C95.43,132.85,94.398,133.389,94.121,134.343z"/>
	<path fill="#005A95" d="M37.421,152.223c-0.277,0.952,0.301,1.96,1.293,2.249c0.994,0.291,2.023-0.248,2.302-1.203
		c0.275-0.954-0.302-1.961-1.295-2.249C38.73,150.73,37.701,151.269,37.421,152.223z"/>
	<path fill="#005A95" d="M39.688,183.581c0.906,1.019,2.267,1.289,3.04,0.603c0.772-0.688,0.663-2.072-0.246-3.092
		c-0.905-1.017-2.266-1.286-3.037-0.6C38.669,181.178,38.78,182.561,39.688,183.581z"/>
	
		<ellipse transform="matrix(-0.9954 -0.0961 0.0961 -0.9954 217.2817 149.8069)" fill="#005A95" cx="112.248" cy="69.672" rx="1.677" ry="3.22"/>
	
		<ellipse transform="matrix(-0.9601 -0.2798 0.2798 -0.9601 184.7071 171.9618)" fill="#005A95" cx="104.626" cy="72.798" rx="1.873" ry="1.799"/>
	<path fill="#005A95" d="M64.02,65.055c-0.874,1.279-0.655,2.945,0.487,3.723c1.14,0.778,2.771,0.371,3.641-0.909
		c0.874-1.278,0.653-2.944-0.487-3.721C66.52,63.371,64.889,63.777,64.02,65.055z"/>
	<path fill="#005A95" d="M125.768,123.755c-0.28,0.953,0.299,1.96,1.293,2.25c0.991,0.289,2.021-0.25,2.298-1.203
		c0.28-0.954-0.302-1.962-1.293-2.252C127.074,122.262,126.042,122.801,125.768,123.755z"/>
	
		<ellipse transform="matrix(-0.87 0.493 -0.493 -0.87 241.4561 318.4241)" fill="#005A95" cx="78.751" cy="191.042" rx="1.872" ry="2.472"/>
	
		<ellipse transform="matrix(-0.96 -0.28 0.28 -0.96 105.0221 367.3968)" fill="#005A95" cx="78.751" cy="176.198" rx="1.87" ry="1.798"/>
	<path fill="#005A95" d="M52.498,202.04c0.717,0.938,1.974,1.18,2.808,0.54c0.835-0.637,0.932-1.914,0.216-2.852
		c-0.712-0.936-1.972-1.178-2.807-0.54C51.881,199.825,51.784,201.104,52.498,202.04z"/>
	<path fill="#005A95" d="M66.966,215.269c-0.277,0.956,0.302,1.965,1.293,2.254c0.991,0.288,2.023-0.251,2.301-1.203
		c0.277-0.955-0.3-1.964-1.293-2.25C68.275,213.778,67.246,214.318,66.966,215.269z"/>
	<circle fill="#074C77" cx="107.926" cy="84.826" r="2.288"/>
</g>
<linearGradient id="SVGID_5_" gradientUnits="userSpaceOnUse" x1="2263.6006" y1="18.1113" x2="2307.6638" y2="18.1113" gradientTransform="matrix(-1 0 0 1 2358.4883 0)">
	<stop  offset="0" style="stop-color:#010101"/>
	<stop  offset="0.0119" style="stop-color:#040506"/>
	<stop  offset="0.1005" style="stop-color:#111A1D"/>
	<stop  offset="0.1998" style="stop-color:#16242B"/>
	<stop  offset="0.3125" style="stop-color:#182B34"/>
	<stop  offset="0.4464" style="stop-color:#182F3A"/>
	<stop  offset="0.622" style="stop-color:#17323E"/>
	<stop  offset="1" style="stop-color:#17333F"/>
</linearGradient>
<path opacity="0.5" fill="url(#SVGID_5_)" d="M50.824,7.727c0,0,33.22,5.887,43.991,20.188c-0.469,0.208-0.976,0.368-1.44,0.582
	C92.407,26.859,79.461,14.452,50.824,7.727z"/>
<linearGradient id="SVGID_6_" gradientUnits="userSpaceOnUse" x1="2247.7314" y1="-191.4766" x2="2290.6555" y2="-191.4766" gradientTransform="matrix(-0.993 0.1182 0.1182 0.993 2335.9092 -52.1662)">
	<stop  offset="0" style="stop-color:#010101"/>
	<stop  offset="0.0119" style="stop-color:#040506"/>
	<stop  offset="0.1005" style="stop-color:#111A1D"/>
	<stop  offset="0.1998" style="stop-color:#16242B"/>
	<stop  offset="0.3125" style="stop-color:#182B34"/>
	<stop  offset="0.4464" style="stop-color:#182F3A"/>
	<stop  offset="0.622" style="stop-color:#17323E"/>
	<stop  offset="1" style="stop-color:#17333F"/>
</linearGradient>
<path opacity="0.5" fill="url(#SVGID_6_)" d="M37.304,17.101c0,0,33.298,5.155,44.347,17.086c-0.489,0.276-0.978,0.552-1.46,0.835
	C76.497,31.529,64.199,21.856,37.304,17.101z"/>
<linearGradient id="SVGID_7_" gradientUnits="userSpaceOnUse" x1="2255.7148" y1="-69.3906" x2="2295.906" y2="-69.3906" gradientTransform="matrix(-0.9984 0.0559 0.0559 0.9984 2331.6379 -26.3617)">
	<stop  offset="0" style="stop-color:#010101"/>
	<stop  offset="0.0119" style="stop-color:#040506"/>
	<stop  offset="0.1005" style="stop-color:#111A1D"/>
	<stop  offset="0.1998" style="stop-color:#16242B"/>
	<stop  offset="0.3125" style="stop-color:#182B34"/>
	<stop  offset="0.4464" style="stop-color:#182F3A"/>
	<stop  offset="0.622" style="stop-color:#17323E"/>
	<stop  offset="1" style="stop-color:#17333F"/>
</linearGradient>
<path opacity="0.5" fill="url(#SVGID_7_)" d="M34.991,23.151c0,0,26.848,5.146,38.415,16.187c-0.428,0.295-0.856,0.591-1.28,0.892
	C67.658,35.974,57.161,28.521,34.991,23.151z"/>
<linearGradient id="SVGID_8_" gradientUnits="userSpaceOnUse" x1="2268.7813" y1="-129.3618" x2="2308.9712" y2="-129.3618" gradientTransform="matrix(-0.9957 0.0927 0.0927 0.9957 2339.5662 -41.7985)">
	<stop  offset="0" style="stop-color:#010101"/>
	<stop  offset="0.0119" style="stop-color:#040506"/>
	<stop  offset="0.1005" style="stop-color:#111A1D"/>
	<stop  offset="0.1998" style="stop-color:#16242B"/>
	<stop  offset="0.3125" style="stop-color:#182B34"/>
	<stop  offset="0.4464" style="stop-color:#182F3A"/>
	<stop  offset="0.622" style="stop-color:#17323E"/>
	<stop  offset="1" style="stop-color:#17333F"/>
</linearGradient>
<path opacity="0.5" fill="url(#SVGID_8_)" d="M27.79,35.448c0,0,22.226,3.415,35.288,11.962c-0.365,0.324-0.732,0.647-1.095,0.974
	C56.147,44.336,45.68,39.086,27.79,35.448z"/>
<linearGradient id="SVGID_9_" gradientUnits="userSpaceOnUse" x1="2270.1504" y1="-178.6763" x2="2300.5552" y2="-178.6763" gradientTransform="matrix(-0.992 0.1261 0.1261 0.992 2328.123 -56.9491)">
	<stop  offset="0" style="stop-color:#010101"/>
	<stop  offset="0.0119" style="stop-color:#040506"/>
	<stop  offset="0.1005" style="stop-color:#111A1D"/>
	<stop  offset="0.1998" style="stop-color:#16242B"/>
	<stop  offset="0.3125" style="stop-color:#182B34"/>
	<stop  offset="0.4464" style="stop-color:#182F3A"/>
	<stop  offset="0.622" style="stop-color:#17323E"/>
	<stop  offset="1" style="stop-color:#17333F"/>
</linearGradient>
<path opacity="0.5" fill="url(#SVGID_9_)" d="M22.642,49.621c0,0,12.143-2.472,30.286,7.995c-0.305,0.348-0.606,0.701-0.904,1.054
	C48.163,56.35,35.064,49.113,22.642,49.621z"/>
<linearGradient id="SVGID_10_" gradientUnits="userSpaceOnUse" x1="2164.2988" y1="-494.1426" x2="2194.7051" y2="-494.1426" gradientTransform="matrix(-0.9505 0.3107 0.3107 0.9505 2256.9531 -139.392)">
	<stop  offset="0" style="stop-color:#010101"/>
	<stop  offset="0.0119" style="stop-color:#040506"/>
	<stop  offset="0.1005" style="stop-color:#111A1D"/>
	<stop  offset="0.1998" style="stop-color:#16242B"/>
	<stop  offset="0.3125" style="stop-color:#182B34"/>
	<stop  offset="0.4464" style="stop-color:#182F3A"/>
	<stop  offset="0.622" style="stop-color:#17323E"/>
	<stop  offset="1" style="stop-color:#17333F"/>
</linearGradient>
<path opacity="0.5" fill="url(#SVGID_10_)" d="M15.653,67.612c0,0,10.454-4.3,28.635,1.289c-0.255,0.379-0.509,0.759-0.757,1.143
	C37.57,68.139,25.861,65.217,15.653,67.612z"/>
<linearGradient id="SVGID_11_" gradientUnits="userSpaceOnUse" x1="2204.2578" y1="-390.1841" x2="2234.6609" y2="-390.1841" gradientTransform="matrix(-0.9662 0.2579 0.2579 0.9662 2275.7717 -116.4052)">
	<stop  offset="0" style="stop-color:#010101"/>
	<stop  offset="0.0119" style="stop-color:#040506"/>
	<stop  offset="0.1005" style="stop-color:#111A1D"/>
	<stop  offset="0.1998" style="stop-color:#16242B"/>
	<stop  offset="0.3125" style="stop-color:#182B34"/>
	<stop  offset="0.4464" style="stop-color:#182F3A"/>
	<stop  offset="0.622" style="stop-color:#17323E"/>
	<stop  offset="1" style="stop-color:#17333F"/>
</linearGradient>
<path opacity="0.5" fill="url(#SVGID_11_)" d="M15.025,79.21c0,0,8.356-2.907,22.633,0.976c-0.185,0.363-0.367,0.726-0.549,1.089
	C30.939,79.454,22.653,77.86,15.025,79.21z"/>
<linearGradient id="SVGID_12_" gradientUnits="userSpaceOnUse" x1="2106.5801" y1="-602.2808" x2="2130.7017" y2="-602.2808" gradientTransform="matrix(-0.9227 0.3856 0.3856 0.9227 2211.9751 -169.2297)">
	<stop  offset="0" style="stop-color:#010101"/>
	<stop  offset="0.0119" style="stop-color:#040506"/>
	<stop  offset="0.1005" style="stop-color:#111A1D"/>
	<stop  offset="0.1998" style="stop-color:#16242B"/>
	<stop  offset="0.3125" style="stop-color:#182B34"/>
	<stop  offset="0.4464" style="stop-color:#182F3A"/>
	<stop  offset="0.622" style="stop-color:#17323E"/>
	<stop  offset="1" style="stop-color:#17333F"/>
</linearGradient>
<path opacity="0.5" fill="url(#SVGID_12_)" d="M12.333,93.283c0,0,7.057-3.591,20.132-1.312c-0.117,0.319-0.236,0.637-0.352,0.957
	C26.945,91.939,19.084,91.117,12.333,93.283z"/>
<linearGradient id="SVGID_13_" gradientUnits="userSpaceOnUse" x1="1960.4531" y1="-813.3799" x2="1984.5779" y2="-813.3799" gradientTransform="matrix(-0.8571 0.5151 0.5151 0.8571 2133.134 -216.2091)">
	<stop  offset="0" style="stop-color:#010101"/>
	<stop  offset="0.0355" style="stop-color:#101519"/>
	<stop  offset="0.0987" style="stop-color:#1B2630"/>
	<stop  offset="0.1684" style="stop-color:#1E3143"/>
	<stop  offset="0.244" style="stop-color:#1F3A52"/>
	<stop  offset="0.3275" style="stop-color:#1B4160"/>
	<stop  offset="0.4222" style="stop-color:#16476A"/>
	<stop  offset="0.5347" style="stop-color:#0F4A71"/>
	<stop  offset="0.6824" style="stop-color:#094C76"/>
	<stop  offset="1" style="stop-color:#074C77"/>
</linearGradient>
<path opacity="0.5" fill="url(#SVGID_13_)" d="M11.596,106.265c0,0,5.792-4.089,17.65-4.225c-0.086,0.318-0.169,0.636-0.25,0.956
	C23.876,102.949,17.154,103.543,11.596,106.265z"/>
<linearGradient id="SVGID_14_" gradientUnits="userSpaceOnUse" x1="1915.6201" y1="-856.6519" x2="1939.7435" y2="-856.6519" gradientTransform="matrix(-0.8368 0.5474 0.5474 0.8368 2106.6675 -225.8056)">
	<stop  offset="0" style="stop-color:#010101"/>
	<stop  offset="0.0355" style="stop-color:#101519"/>
	<stop  offset="0.0987" style="stop-color:#1B2630"/>
	<stop  offset="0.1684" style="stop-color:#1E3143"/>
	<stop  offset="0.244" style="stop-color:#1F3A52"/>
	<stop  offset="0.3275" style="stop-color:#1B4160"/>
	<stop  offset="0.4222" style="stop-color:#16476A"/>
	<stop  offset="0.5347" style="stop-color:#0F4A71"/>
	<stop  offset="0.6824" style="stop-color:#094C76"/>
	<stop  offset="1" style="stop-color:#074C77"/>
</linearGradient>
<path opacity="0.5" fill="url(#SVGID_14_)" d="M26.702,113.735c-4.326,0.433-9.165,1.458-13.288,3.678c0,0,4.351-3.331,13.45-4.535
	C26.816,113.121,26.763,113.4,26.702,113.735z"/>
<linearGradient id="SVGID_15_" gradientUnits="userSpaceOnUse" x1="1559.7178" y1="-1171.041" x2="1570.1934" y2="-1171.041" gradientTransform="matrix(-0.6643 0.7475 0.7475 0.6643 1934.9032 -267.9016)">
	<stop  offset="0" style="stop-color:#010101"/>
	<stop  offset="0.0355" style="stop-color:#101519"/>
	<stop  offset="0.0987" style="stop-color:#1B2630"/>
	<stop  offset="0.1684" style="stop-color:#1E3143"/>
	<stop  offset="0.244" style="stop-color:#1F3A52"/>
	<stop  offset="0.3275" style="stop-color:#1B4160"/>
	<stop  offset="0.4222" style="stop-color:#16476A"/>
	<stop  offset="0.5347" style="stop-color:#0F4A71"/>
	<stop  offset="0.6824" style="stop-color:#094C76"/>
	<stop  offset="1" style="stop-color:#074C77"/>
</linearGradient>
<path opacity="0.5" fill="url(#SVGID_15_)" d="M24.861,121.964c0,0-6.432,0.878-10.13,4.385c0,0,2.733-3.581,10.258-4.899
	L24.861,121.964z"/>
<linearGradient id="SVGID_16_" gradientUnits="userSpaceOnUse" x1="1273.957" y1="-1309.8232" x2="1284.4298" y2="-1309.8232" gradientTransform="matrix(-0.5197 0.8544 0.8544 0.5197 1806.4805 -268.5757)">
	<stop  offset="0" style="stop-color:#010101"/>
	<stop  offset="0.0355" style="stop-color:#101519"/>
	<stop  offset="0.0987" style="stop-color:#1B2630"/>
	<stop  offset="0.1684" style="stop-color:#1E3143"/>
	<stop  offset="0.244" style="stop-color:#1F3A52"/>
	<stop  offset="0.3275" style="stop-color:#1B4160"/>
	<stop  offset="0.4222" style="stop-color:#16476A"/>
	<stop  offset="0.5347" style="stop-color:#0F4A71"/>
	<stop  offset="0.6824" style="stop-color:#094C76"/>
	<stop  offset="1" style="stop-color:#074C77"/>
</linearGradient>
<path opacity="0.5" fill="url(#SVGID_16_)" d="M18.339,147.208c0,0,1.701-3.326,7.417-5.917c0.013,0.157,0.027,0.311,0.04,0.471
	C23.746,142.663,20.344,144.472,18.339,147.208z"/>
<linearGradient id="SVGID_17_" gradientUnits="userSpaceOnUse" x1="1627.6211" y1="-1116.853" x2="1638.0997" y2="-1116.853" gradientTransform="matrix(-0.6883 0.7254 0.7254 0.6883 1960.1458 -267.323)">
	<stop  offset="0" style="stop-color:#010101"/>
	<stop  offset="0.0355" style="stop-color:#101519"/>
	<stop  offset="0.0987" style="stop-color:#1B2630"/>
	<stop  offset="0.1684" style="stop-color:#1E3143"/>
	<stop  offset="0.244" style="stop-color:#1F3A52"/>
	<stop  offset="0.3275" style="stop-color:#1B4160"/>
	<stop  offset="0.4222" style="stop-color:#16476A"/>
	<stop  offset="0.5347" style="stop-color:#0F4A71"/>
	<stop  offset="0.6824" style="stop-color:#094C76"/>
	<stop  offset="1" style="stop-color:#074C77"/>
</linearGradient>
<path opacity="0.5" fill="url(#SVGID_17_)" d="M21.895,151.672c0,0,1.378-1.685,4.753-3.072c0.018,0.115,0.036,0.23,0.054,0.346
	C25.043,149.557,23.291,150.432,21.895,151.672z"/>
<linearGradient id="SVGID_18_" gradientUnits="userSpaceOnUse" x1="1631.5635" y1="-1112.0713" x2="1640.7014" y2="-1112.0713" gradientTransform="matrix(-0.6883 0.7254 0.7254 0.6883 1960.1458 -267.323)">
	<stop  offset="0" style="stop-color:#010101"/>
	<stop  offset="0.0355" style="stop-color:#101519"/>
	<stop  offset="0.0987" style="stop-color:#1B2630"/>
	<stop  offset="0.1684" style="stop-color:#1E3143"/>
	<stop  offset="0.244" style="stop-color:#1F3A52"/>
	<stop  offset="0.3275" style="stop-color:#1B4160"/>
	<stop  offset="0.4222" style="stop-color:#16476A"/>
	<stop  offset="0.5347" style="stop-color:#0F4A71"/>
	<stop  offset="0.6824" style="stop-color:#094C76"/>
	<stop  offset="1" style="stop-color:#074C77"/>
</linearGradient>
<path opacity="0.5" fill="url(#SVGID_18_)" d="M23.831,157.096c0,0,1.104-1.659,3.803-3.04c0.027,0.111,0.05,0.219,0.074,0.331
	C26.368,154.998,24.958,155.867,23.831,157.096z"/>
<linearGradient id="SVGID_19_" gradientUnits="userSpaceOnUse" x1="1633.7588" y1="-1106.7119" x2="1642.9025" y2="-1106.7119" gradientTransform="matrix(-0.6883 0.7254 0.7254 0.6883 1960.1458 -267.323)">
	<stop  offset="0" style="stop-color:#010101"/>
	<stop  offset="0.0355" style="stop-color:#101519"/>
	<stop  offset="0.0987" style="stop-color:#1B2630"/>
	<stop  offset="0.1684" style="stop-color:#1E3143"/>
	<stop  offset="0.244" style="stop-color:#1F3A52"/>
	<stop  offset="0.3275" style="stop-color:#1B4160"/>
	<stop  offset="0.4222" style="stop-color:#16476A"/>
	<stop  offset="0.5347" style="stop-color:#0F4A71"/>
	<stop  offset="0.6824" style="stop-color:#094C76"/>
	<stop  offset="1" style="stop-color:#074C77"/>
</linearGradient>
<path opacity="0.5" fill="url(#SVGID_19_)" d="M26.35,162.521c0,0,0.811-1.206,2.726-2.418c0.022,0.088,0.043,0.174,0.065,0.262
	C28.152,160.917,27.175,161.622,26.35,162.521z"/>
<linearGradient id="SVGID_20_" gradientUnits="userSpaceOnUse" x1="1635.1934" y1="-1102.6953" x2="1644.3376" y2="-1102.6953" gradientTransform="matrix(-0.6883 0.7254 0.7254 0.6883 1960.1458 -267.323)">
	<stop  offset="0" style="stop-color:#010101"/>
	<stop  offset="0.0355" style="stop-color:#101519"/>
	<stop  offset="0.0987" style="stop-color:#1B2630"/>
	<stop  offset="0.1684" style="stop-color:#1E3143"/>
	<stop  offset="0.244" style="stop-color:#1F3A52"/>
	<stop  offset="0.3275" style="stop-color:#1B4160"/>
	<stop  offset="0.4222" style="stop-color:#16476A"/>
	<stop  offset="0.5347" style="stop-color:#0F4A71"/>
	<stop  offset="0.6824" style="stop-color:#094C76"/>
	<stop  offset="1" style="stop-color:#074C77"/>
</linearGradient>
<path opacity="0.5" fill="url(#SVGID_20_)" d="M28.374,166.419c0,0,0.565-0.846,1.87-1.834c0.021,0.066,0.041,0.131,0.063,0.197
	C29.617,165.24,28.959,165.782,28.374,166.419z"/>
<linearGradient id="SVGID_21_" gradientUnits="userSpaceOnUse" x1="1635.9326" y1="-1098.9922" x2="1645.0582" y2="-1098.9922" gradientTransform="matrix(-0.6883 0.7254 0.7254 0.6883 1960.1458 -267.323)">
	<stop  offset="0" style="stop-color:#010101"/>
	<stop  offset="0.0355" style="stop-color:#101519"/>
	<stop  offset="0.0987" style="stop-color:#1B2630"/>
	<stop  offset="0.1684" style="stop-color:#1E3143"/>
	<stop  offset="0.244" style="stop-color:#1F3A52"/>
	<stop  offset="0.3275" style="stop-color:#1B4160"/>
	<stop  offset="0.4222" style="stop-color:#16476A"/>
	<stop  offset="0.5347" style="stop-color:#0F4A71"/>
	<stop  offset="0.6824" style="stop-color:#094C76"/>
	<stop  offset="1" style="stop-color:#074C77"/>
</linearGradient>
<path opacity="0.5" fill="url(#SVGID_21_)" d="M30.64,169.563c0,0,0.284-0.422,0.896-1.009c0.014,0.04,0.028,0.077,0.041,0.114
	C31.249,168.943,30.935,169.24,30.64,169.563z"/>
<path fill="#2B1023" d="M34.916,174.385c0.002,0,0.005,0,0.009,0c-0.032,0.003-0.061,0.003-0.099,0.007
	C34.857,174.388,34.887,174.388,34.916,174.385z"/>
<g>
	
		<radialGradient id="SVGID_22_" cx="2287.6338" cy="171.4883" r="98.9573" gradientTransform="matrix(-1 0 0 1 2358.4883 0)" gradientUnits="userSpaceOnUse">
		<stop  offset="0" style="stop-color:#083E3E"/>
		<stop  offset="0.2353" style="stop-color:#09403F"/>
		<stop  offset="0.3617" style="stop-color:#0E4543"/>
		<stop  offset="0.4622" style="stop-color:#164E48"/>
		<stop  offset="0.5491" style="stop-color:#205C50"/>
		<stop  offset="0.6273" style="stop-color:#2C6F5A"/>
		<stop  offset="0.698" style="stop-color:#3B8864"/>
		<stop  offset="0.7438" style="stop-color:#489D6C"/>
		<stop  offset="1" style="stop-color:#27693C"/>
	</radialGradient>
	<path fill="url(#SVGID_22_)" d="M0.022,154.801c-0.002,0.028,0.004,0.046,0.004,0.071c0.032-1.147-0.027-3.082,1.365-6.026
		c0.016-0.034,0.027-0.083,0.041-0.122c2.068-5.125,6.083-10.879,9.775-15.554c4.182-5.297,9.118-10.233,9.118-10.233l0,0
		c4.181-3.942,17.214-11.987,20.614-17.092c0.333-0.499,1.901-1.924,2.142-3.05c12.259,8.277,9.704,34.191,9.686,34.164
		c-0.036-0.051-0.528-0.334-0.494-0.288c-8.819-5.749-21.123-1.245-31.295,4.771c-0.004-0.029-0.008-0.059-0.015-0.088
		c-2.206,1.306-4.301,2.682-6.25,4.04c-0.25,0.226-0.453,0.396-0.633,0.539c-1.79,1.263-3.434,2.501-4.887,3.644
		c-0.192,0.133-0.39,0.271-0.57,0.394c-0.185,0.151-0.347,0.315-0.523,0.472c-3.323,2.669-5.424,4.629-5.614,4.808
		c-0.523,0.337-0.944,0.554-1.291,0.672c-0.029,0.014-0.056,0.019-0.083,0.026c-0.077,0.025-0.153,0.053-0.221,0.065
		c-0.117,0.021-0.211,0.024-0.3,0.019c-0.011-0.003-0.024-0.006-0.034-0.009C-0.158,155.915,0.018,154.833,0.022,154.801z"/>
</g>
<linearGradient id="SVGID_23_" gradientUnits="userSpaceOnUse" x1="2166.4072" y1="-437.7773" x2="2224.7432" y2="-437.7773" gradientTransform="matrix(-0.9695 0.2453 0.2453 0.9695 2313.7854 -101.6586)">
	<stop  offset="0" style="stop-color:#010101"/>
	<stop  offset="0.0119" style="stop-color:#040506"/>
	<stop  offset="0.1005" style="stop-color:#111A1D"/>
	<stop  offset="0.1998" style="stop-color:#16242B"/>
	<stop  offset="0.3125" style="stop-color:#182B34"/>
	<stop  offset="0.4464" style="stop-color:#182F3A"/>
	<stop  offset="0.622" style="stop-color:#17323E"/>
	<stop  offset="1" style="stop-color:#17333F"/>
</linearGradient>
<path opacity="0.5" fill="url(#SVGID_23_)" d="M44.883,1.358c0,0,34.343-9.608,65.718,22.292c-0.471,0.086-1.341,0.192-1.812,0.345
	C107.451,22.645,81.651-5.227,44.883,1.358z"/>
<g>
	<g>
		<path fill="#005A95" d="M189.326,185.969c-4.548,2.296-10.2,3.444-16.957,3.444c-7.494,0-13.4-1.816-17.721-5.45
			c-4.32-3.633-6.48-8.638-6.48-15.013c0-6.413,2.359-11.64,7.081-15.682c4.721-4.042,11.001-6.062,18.842-6.062
			c4.938,0,9.29,0.598,13.059,1.793v8.624c-3.596-1.821-7.991-2.732-13.188-2.732c-4.354,0-7.899,1.238-10.64,3.714
			c-2.739,2.476-4.109,5.782-4.109,9.918c0,4.193,1.229,7.438,3.688,9.733c2.458,2.296,5.776,3.443,9.957,3.443
			c2.512,0,4.504-0.313,5.977-0.939v-7.969h-9.323v-7.343h19.816V185.969z"/>
		<path fill="#005A95" d="M225.059,188.701h-9.713v-4.184h-0.131c-2.23,3.264-5.533,4.895-9.906,4.895
			c-3.229,0-5.768-0.801-7.619-2.405c-1.852-1.603-2.777-3.743-2.777-6.418c0-5.654,3.822-8.917,11.467-9.79l9.031-1.053
			c0-3.188-1.971-4.781-5.912-4.781c-3.963,0-7.73,1.034-11.305,3.102v-6.773c1.43-0.645,3.383-1.214,5.863-1.708
			c2.48-0.493,4.738-0.74,6.773-0.74c9.486,0,14.229,4.146,14.229,12.438V188.701z M215.41,176.862v-1.964l-6.041,0.683
			c-3.336,0.38-5.004,1.698-5.004,3.956c0,1.024,0.406,1.864,1.219,2.519s1.91,0.982,3.297,0.982c1.928,0,3.498-0.583,4.711-1.75
			C214.805,180.121,215.41,178.646,215.41,176.862z"/>
		<path fill="#005A95" d="M254.879,152.443c-1.32-0.456-2.588-0.683-3.801-0.683c-3.291,0-4.938,1.565-4.938,4.696v3.103h7.602
			v6.631h-7.602v22.512h-10.232v-22.512h-5.588v-6.631h5.588v-3.615c0-3.32,1.234-5.995,3.703-8.026
			c2.469-2.03,5.826-3.045,10.07-3.045c2.078,0,3.811,0.19,5.197,0.569V152.443z"/>
		<path fill="#005A95" d="M280.381,152.443c-1.322-0.456-2.588-0.683-3.801-0.683c-3.293,0-4.938,1.565-4.938,4.696v3.103h7.602
			v6.631h-7.602v22.512h-10.234v-22.512h-5.586v-6.631h5.586v-3.615c0-3.32,1.234-5.995,3.705-8.026
			c2.469-2.03,5.824-3.045,10.07-3.045c2.078,0,3.811,0.19,5.197,0.569V152.443z"/>
		<path fill="#005A95" d="M314.066,176.691h-21.699c0.346,4.231,3.389,6.347,9.129,6.347c3.66,0,6.875-0.759,9.648-2.277v6.489
			c-3.076,1.442-7.072,2.163-11.988,2.163c-5.371,0-9.539-1.304-12.506-3.913s-4.451-6.247-4.451-10.915
			c0-4.838,1.604-8.671,4.809-11.498c3.205-2.827,7.146-4.241,11.824-4.241c4.852,0,8.604,1.262,11.256,3.785
			c2.652,2.524,3.979,5.948,3.979,10.274V176.691z M304.549,171.169c0-4.174-1.928-6.261-5.781-6.261
			c-1.646,0-3.07,0.598-4.271,1.793c-1.203,1.195-1.934,2.685-2.193,4.468H304.549z"/>
		<path fill="#005A95" d="M341.875,167.669c-1.234-0.588-2.676-0.882-4.32-0.882c-2.232,0-3.975,0.717-5.23,2.149
			c-1.256,1.433-1.885,3.382-1.885,5.849v13.917h-10.266v-29.143h10.266v5.407h0.131c1.623-3.946,4.547-5.92,8.77-5.92
			c1.084,0,1.928,0.114,2.535,0.342V167.669z"/>
	</g>
</g>
<linearGradient id="SVGID_24_" gradientUnits="userSpaceOnUse" x1="110.7544" y1="23.8281" x2="110.7544" y2="23.8281">
	<stop  offset="0" style="stop-color:#010101"/>
	<stop  offset="0.0119" style="stop-color:#040506"/>
	<stop  offset="0.1005" style="stop-color:#111A1D"/>
	<stop  offset="0.1998" style="stop-color:#16242B"/>
	<stop  offset="0.3125" style="stop-color:#182B34"/>
	<stop  offset="0.4464" style="stop-color:#182F3A"/>
	<stop  offset="0.622" style="stop-color:#17323E"/>
	<stop  offset="1" style="stop-color:#17333F"/>
</linearGradient>
<path fill="url(#SVGID_24_)" d="M110.754,23.828"/>
<path fill="none" d="M347.139,188.938c-0.025,0.002-0.057,0.002-0.088,0.006c0.039-0.004,0.068-0.004,0.1-0.006
	C347.146,188.938,347.143,188.938,347.139,188.938z"/>
<g opacity="0.7">
	
		<linearGradient id="SVGID_25_" gradientUnits="userSpaceOnUse" x1="73.8716" y1="148.7026" x2="113.9517" y2="148.7026" gradientTransform="matrix(0.9242 0.382 -0.382 0.9242 203.391 29.6337)">
		<stop  offset="0" style="stop-color:#C2E0EF"/>
		<stop  offset="0.5" style="stop-color:#9CD0E8"/>
		<stop  offset="0.748" style="stop-color:#8FCBE5"/>
		<stop  offset="1" style="stop-color:#88C8E4"/>
	</linearGradient>
	<path fill="url(#SVGID_25_)" d="M251.902,210.589c-4.229,10.233-15.947,15.095-26.176,10.867
		c-10.227-4.228-15.094-15.95-10.867-26.177c4.229-10.228,15.951-15.089,26.176-10.858
		C251.266,188.648,256.133,200.365,251.902,210.589z"/>
	<path fill="#FFFFFF" d="M232.018,194.073c0,2.378-1.93,4.311-4.314,4.311c-2.381,0-4.311-1.933-4.311-4.311
		c0-2.385,1.93-4.317,4.311-4.317C230.088,189.756,232.018,191.688,232.018,194.073z"/>
</g>
<g opacity="0.7">
	
		<linearGradient id="SVGID_26_" gradientUnits="userSpaceOnUse" x1="105.6128" y1="75.4932" x2="124.8237" y2="75.4932" gradientTransform="matrix(0.9242 0.382 -0.382 0.9242 203.391 29.6337)">
		<stop  offset="0" style="stop-color:#C2E0EF"/>
		<stop  offset="0.5" style="stop-color:#9CD0E8"/>
		<stop  offset="0.748" style="stop-color:#8FCBE5"/>
		<stop  offset="1" style="stop-color:#88C8E4"/>
	</linearGradient>
	<circle fill="url(#SVGID_26_)" cx="281.038" cy="143.416" r="9.606"/>
	<circle fill="#FFFFFF" cx="278.315" cy="139.167" r="2.067"/>
</g>
<g>
	
		<linearGradient id="SVGID_27_" gradientUnits="userSpaceOnUse" x1="47.4771" y1="46.6982" x2="59.8091" y2="46.6982" gradientTransform="matrix(0.9242 0.382 -0.382 0.9242 203.391 29.6337)">
		<stop  offset="0" style="stop-color:#C2E0EF"/>
		<stop  offset="0.5" style="stop-color:#9CD0E8"/>
		<stop  offset="0.748" style="stop-color:#8FCBE5"/>
		<stop  offset="1" style="stop-color:#88C8E4"/>
	</linearGradient>
	<path fill="url(#SVGID_27_)" d="M240.828,95.637c-1.301,3.15-4.908,4.646-8.055,3.344c-3.145-1.301-4.643-4.907-3.342-8.055
		c1.299-3.147,4.908-4.643,8.053-3.341C240.631,88.886,242.129,92.492,240.828,95.637z"/>
	<circle fill="#FFFFFF" cx="233.383" cy="90.554" r="1.326"/>
</g>
<g>
	
		<linearGradient id="SVGID_28_" gradientUnits="userSpaceOnUse" x1="112.7114" y1="38.5977" x2="127.354" y2="38.5977" gradientTransform="matrix(0.9242 0.382 -0.382 0.9242 203.391 29.6337)">
		<stop  offset="0" style="stop-color:#C2E0EF"/>
		<stop  offset="0.5" style="stop-color:#9CD0E8"/>
		<stop  offset="0.748" style="stop-color:#8FCBE5"/>
		<stop  offset="1" style="stop-color:#88C8E4"/>
	</linearGradient>
	<circle fill="url(#SVGID_28_)" cx="299.581" cy="111.156" r="7.322"/>
	<circle fill="#FFFFFF" cx="297.508" cy="107.917" r="1.576"/>
</g>
<g>
	
		<linearGradient id="SVGID_29_" gradientUnits="userSpaceOnUse" x1="32.4468" y1="11.5903" x2="43.2202" y2="11.5903" gradientTransform="matrix(0.9242 0.382 -0.382 0.9242 203.391 29.6337)">
		<stop  offset="0" style="stop-color:#C2E0EF"/>
		<stop  offset="0.5" style="stop-color:#9CD0E8"/>
		<stop  offset="0.748" style="stop-color:#8FCBE5"/>
		<stop  offset="1" style="stop-color:#88C8E4"/>
	</linearGradient>
	<path fill="url(#SVGID_29_)" d="M238.908,56.854c-1.135,2.753-4.285,4.059-7.037,2.922c-2.746-1.137-4.057-4.288-2.92-7.038
		c1.137-2.75,4.287-4.057,7.037-2.919S240.047,54.107,238.908,56.854z"/>
	<circle fill="#FFFFFF" cx="232.403" cy="52.413" r="1.159"/>
</g>
</svg>
