<?xml version="1.0" encoding="utf-8"?>
<!-- Generator: Adobe Illustrator 16.0.0, SVG Export Plug-In . SVG Version: 6.00 Build 0)  -->
<!DOCTYPE svg PUBLIC "-//W3C//DTD SVG 1.1//EN" "http://www.w3.org/Graphics/SVG/1.1/DTD/svg11.dtd">
<svg version="1.1" id="Layer_1" xmlns="http://www.w3.org/2000/svg" xmlns:xlink="http://www.w3.org/1999/xlink" x="0px" y="0px"
	 width="260.893px" height="343.461px" viewBox="0 0 260.893 343.461" enable-background="new 0 0 260.893 343.461"
	 xml:space="preserve">
<g>
	
		<radialGradient id="SVGID_1_" cx="2083.604" cy="176.0278" r="32.152" gradientTransform="matrix(-0.7216 -0.6923 -0.5089 0.5305 1733.1056 1525.0969)" gradientUnits="userSpaceOnUse">
		<stop  offset="0" style="stop-color:#0A3E3E"/>
		<stop  offset="0.2844" style="stop-color:#17564C"/>
		<stop  offset="0.5764" style="stop-color:#216B56"/>
		<stop  offset="0.8253" style="stop-color:#26785B"/>
		<stop  offset="1" style="stop-color:#287D5D"/>
	</radialGradient>
	<path fill="url(#SVGID_1_)" d="M151.173,163.073c1.67,1.704,3.479,4.157,5.084,6.931l0.019,0.021l0.008,0.03
		c2.704,4.67,4.835,10.246,4.715,14.731c-0.019,1.074-0.157,2.086-0.461,3.007c-2.534,0.473-5.099-2.518-7.108-4.457
		c0,0-16.301-13.596-24.337-12.688c-0.119,0.01-0.233,0.037-0.345,0.055c0,0-1.52,0.177-1.801,0.324
		c-1.476,0.338-2.895,0.859-4.263,1.526c7.426-4.317,18.533-8.577,26.474-11.504C149.945,161.79,150.667,162.556,151.173,163.073z"
		/>
	
		<radialGradient id="SVGID_2_" cx="2013.687" cy="103.9512" r="152.4739" gradientTransform="matrix(-1 0 0 1 2223.5479 0)" gradientUnits="userSpaceOnUse">
		<stop  offset="0" style="stop-color:#2572B9"/>
		<stop  offset="0.1361" style="stop-color:#256697"/>
		<stop  offset="0.3331" style="stop-color:#1F5975"/>
		<stop  offset="0.5234" style="stop-color:#184D5B"/>
		<stop  offset="0.7026" style="stop-color:#11454B"/>
		<stop  offset="0.8662" style="stop-color:#0C4042"/>
		<stop  offset="1" style="stop-color:#0A3E3E"/>
	</radialGradient>
	<path fill="url(#SVGID_2_)" d="M207.25,90.871l0.141,10.271l-2.239,3.912l1.296,1.36l2.063,0.945l2.39,3.488l2.118,3.325
		l-0.115,6.723l-2.873,1.54l-6.397,1.695l-5.167-1.695c0,0-12.92-0.15-13.937,0c-1.026,0.145-10.548,0-10.548,0l-24.253,3.423
		l-15.934-1.41l-9.751-5.439l-3.456-5.134h9.689l5.163-0.228l5.079-5.239l2.269-7.493l1.39-6.69l9.8-9.44l7.096-8.937l6.448-6.011
		l14.962-1.21l12.586,3.61l7.857,5.052l4.323,13.576V90.871z"/>
	<polygon fill="#005A95" points="158.681,143.535 144.124,132.718 133.741,124.984 127.465,120.694 119.161,114.418 115.734,98.053 
		123.995,83.954 130.224,76.386 119.161,76.386 104.067,82.058 97.284,106.532 95.021,119.549 98.522,130.086 111.47,138.063 
		120.73,143.535 135.44,148.123 147.47,148.408 	"/>
	
		<radialGradient id="SVGID_3_" cx="2148.4263" cy="84.2261" r="92.658" gradientTransform="matrix(-0.8471 -0.5313 -1.2654 2.0177 2006.2539 1070.7037)" gradientUnits="userSpaceOnUse">
		<stop  offset="0" style="stop-color:#010101"/>
		<stop  offset="0.1137" style="stop-color:#030304"/>
		<stop  offset="0.1707" style="stop-color:#080A0C"/>
		<stop  offset="0.215" style="stop-color:#0F1417"/>
		<stop  offset="0.2529" style="stop-color:#161D24"/>
		<stop  offset="0.2866" style="stop-color:#1B2731"/>
		<stop  offset="0.3173" style="stop-color:#1E3141"/>
		<stop  offset="0.3458" style="stop-color:#1E3C54"/>
		<stop  offset="0.3718" style="stop-color:#13476B"/>
		<stop  offset="0.3842" style="stop-color:#034D78"/>
		<stop  offset="0.3905" style="stop-color:#06517E"/>
		<stop  offset="0.4142" style="stop-color:#175E94"/>
		<stop  offset="0.4377" style="stop-color:#2068A6"/>
		<stop  offset="0.4607" style="stop-color:#246FB3"/>
		<stop  offset="0.4828" style="stop-color:#2572B9"/>
		<stop  offset="0.5098" style="stop-color:#246FB2"/>
		<stop  offset="0.539" style="stop-color:#2068A6"/>
		<stop  offset="0.5691" style="stop-color:#175E93"/>
		<stop  offset="0.5998" style="stop-color:#05507D"/>
		<stop  offset="0.6059" style="stop-color:#034D78"/>
		<stop  offset="0.6131" style="stop-color:#0C4A71"/>
		<stop  offset="0.6439" style="stop-color:#1D3E59"/>
		<stop  offset="0.6772" style="stop-color:#1E3344"/>
		<stop  offset="0.7126" style="stop-color:#1C2834"/>
		<stop  offset="0.7507" style="stop-color:#171E25"/>
		<stop  offset="0.7927" style="stop-color:#101418"/>
		<stop  offset="0.8405" style="stop-color:#080B0D"/>
		<stop  offset="0.8991" style="stop-color:#030304"/>
		<stop  offset="1" style="stop-color:#010101"/>
	</radialGradient>
	<path fill="url(#SVGID_3_)" d="M13.471,115.724c0.603-0.701,1.328-0.949,0.943-1.781c-1.344-0.768-2.359-0.578-3.325-0.307
		c-0.822,0.234-1.613,0.531-2.532,0.352c-0.618-0.31-0.448-6.282,2.978-10.039c1.471-1.605,6.171-5.37,5.965-6.521
		c-0.214-1.216-4.955-1.406-6.366-2.049c-0.844-0.727,0.643-3.936,1.595-5.172c1.165-1.396,2.239-2.334,3.526-3.585
		c5.58-5.007-0.465-4.05-1.047-8.247c-0.454-3.451,2.848-7.024,4.879-9.351c0.846-1.083,7.267-6.205,7.163-7.17
		c0-0.842-3.396-1.192-5.152-2.086c-2.929-1.559,1.404-7.085,2.71-8.63c1.061-1.397,3.229-2.595,4.94-3.825
		c3.889-2.542,6.177-3.522,0.913-5.757c-2.025-0.835-4.804-0.358-5.001-0.733c-0.508-0.554,2.011-5.097,3.302-6.193
		c2.471-2.043,4.228-2.722,8.409-3.691c1.779-0.41,4.621-0.503,5.023-1.826c-0.138-1.715-4.218-3.064-5.461-3.777
		c1.291-2.528,8.165-2.408,8.222-3.092c0.011-1.222-2.463-3.362-5.017-4.499c0.697-2.134,6.299-4.691,9.324-5.437
		c2.775-0.813,11.748-0.45,11.789-1.149c0.521-1.363-4.38-6.007-6.551-7.309c0.063-0.3,0.497-0.577,1.261-0.748
		c7.145-1.528,19.154-1.166,23.118-0.64c27.211,3.61,45.673,18.872,54.562,28.149c-5.407,0.994-10.704,2.351-15.841,4.074
		c-31.692,11.726-57.692,35.557-72.67,66.025c-3.333,6.773-6.122,13.875-8.308,21.247c-1.457,4.926-2.626,9.97-3.528,15.116
		c0,0-4.946,20.893,0.184,48.448c0.87,4.777,3.502,14.716,3.606,15.046c0.941,3.097,2,6.139,3.137,9.146
		c-1.092-0.28-2.656,0.015-4.062,1.346c-1.444-0.637,1.438-2.954,0.731-4.438c-0.349-0.436-1.982,0.644-2.542,0.364
		c-1.563-0.552,1.999-6.063-1.799-3.534c-1.43-1.446,1.316-2.232-0.273-4.706c-1.157-1.809-2.659,0.397-3.379,0.017
		c-1.487-0.773,0.071-3.202,0.215-4.604c0.169-1.561,0.524-4.222-3.159-1.571c-0.558,0.401-2.067-1.163,0.407-7.201
		c0.245-0.595-1.55-1.878-3.406-0.362c-2.269,1.845-0.375-4.181-1-4.971c-1.488-1.304-2.596,1.365-3.834,0.933
		c-1.584-1.44,1.475-6.914,1.189-7.521c-0.535-1.193-1.965-0.431-2.945-0.69c-1.844-1.45,0.308-4.211,0.782-5.516
		c3.239-8.83-2.208-4.04-2.369-5.539c-0.428-6.165,5.346-6.25,1.976-7.941c-1.126-0.562-2.609-0.31-3.19-1.194
		c-1.868-2.95,3.415-7.692,1.524-8.841c-1.022-0.617-4.227,0.605-4.706-0.77c-1.868-5.441,4.947-9.607,3.594-12.443
		c-0.876-1.23-3.575,0.949-5.085,0.019c-0.631-1.889,0.286-8.143,1.104-9.982C10.947,118.384,12.485,116.876,13.471,115.724z"/>
	<path fill="#FFFFFF" d="M141.413,105.265c0,5.232-4.242,9.473-9.477,9.473c-5.231,0-9.47-4.241-9.47-9.473
		c0-5.231,4.238-9.471,9.47-9.471C137.17,95.794,141.413,100.034,141.413,105.265z"/>
	
		<radialGradient id="SVGID_4_" cx="2049.2319" cy="191.7739" r="352.2324" fx="2010.2505" fy="190.2979" gradientTransform="matrix(-0.8695 -0.4939 -0.5415 0.9533 2059.9849 1021.1184)" gradientUnits="userSpaceOnUse">
		<stop  offset="0.0443" style="stop-color:#EAE236"/>
		<stop  offset="0.094" style="stop-color:#E6E037"/>
		<stop  offset="0.1474" style="stop-color:#DADA3A"/>
		<stop  offset="0.2026" style="stop-color:#C6D13E"/>
		<stop  offset="0.2585" style="stop-color:#AAC543"/>
		<stop  offset="0.2956" style="stop-color:#94BC46"/>
		<stop  offset="0.3105" style="stop-color:#8EB94C"/>
		<stop  offset="0.3334" style="stop-color:#7EAF5B"/>
		<stop  offset="0.3614" style="stop-color:#63A272"/>
		<stop  offset="0.3932" style="stop-color:#339288"/>
		<stop  offset="0.399" style="stop-color:#258F8C"/>
		<stop  offset="0.4194" style="stop-color:#278F81"/>
		<stop  offset="0.461" style="stop-color:#2C8E65"/>
		<stop  offset="0.4828" style="stop-color:#2E8E53"/>
		<stop  offset="0.6059" style="stop-color:#2E8E53"/>
		<stop  offset="0.7783" style="stop-color:#489C6D"/>
		<stop  offset="1" style="stop-color:#287D5D"/>
	</radialGradient>
	<path fill="url(#SVGID_4_)" d="M32.854,185.496c0.876,4.779,3.52,14.716,3.62,15.042c0.945,3.097,2.004,6.145,3.149,9.146
		c14.316,37.455,44.347,67.371,82.281,78.777c2.157,0.652,7.064,2.087,7.114,2.098c1.389,0.73,2.702,1.748,3.565,2.864
		c0.562,0.747,1.571,2.172,2.006,2.951c4.141,7.394,7.272,13.227,7.373,13.396c0.767,1.384,1.617,2.773,2.564,4.158
		c1.34,1.947,2.85,3.884,4.543,5.787c4.069,4.575,9.136,8.942,15.013,12.748c0.461,0.301,0.93,0.592,1.394,0.88
		c3.314,2.049,6.664,3.789,9.997,5.228c3.877,1.662,7.702,2.904,11.397,3.729c2.903,0.644,5.711,1.036,8.383,1.159
		c0.402-0.196,0.71-0.469,0.877-0.871c-0.699,0.023-1.455-0.074-2.24-0.233c-0.282-0.02-0.492-0.057-0.706-0.138
		c-12.833-3.34-35.191-23.673-38.933-41.64c-0.874-4.176-0.741-8.222,0.756-11.9c1.19-2.935,2.815-5.648,4.736-8.17
		c0.501-0.652,1.005-1.302,1.543-1.928c9.574-11.135,25.464-17.915,39.217-20.094c8.977-1.425,17.045-0.896,21.845,1.672
		c0.085,0.045,0.066,0.202,0.107,0.301c0.146-0.024,0.353-0.07,0.671-0.164c0.168-0.137,0.301-0.276,0.374-0.44
		c-1.092-1.299-2.381-2.464-3.848-3.495c-3.752-2.622-8.66-4.339-14.263-5.069c-5.25-0.688-11.105-0.5-17.193,0.656
		c-3.092,0.591-6.245,1.421-9.41,2.519c-2.183,0.758-4.284,1.618-6.301,2.555c-3.438,1.597-6.615,3.434-9.471,5.447
		c-1.134,0.798-2.223,1.624-3.261,2.476c-0.605,0.531-7.65,6.134-8.768,6.868c-3.312,2.684-7.024,4.37-11.058,4.794
		c-0.104,0.013-0.206,0.013-0.31,0.021c-2.091,0.182-4.173,0.02-6.225-0.458c-5.445-1.591-9.717-4.693-13.625-8.283
		c-8.971-8.237-14.938-23.202-16.834-40.103c-0.019-0.208-0.057-0.416-0.076-0.626c-2.069-19.746,2.614-37.628,11.268-47.671
		c1.01-1.173,2.07-2.241,3.192-3.192c1.365-1.232,3.211-2.488,5.363-3.742c7.425-4.319,18.533-8.577,26.484-11.51
		c4.961-1.828,8.693-3.146,9.514-3.631l0.011-0.005l0.012-0.011c3.892-2.314,7.83-5.223,9.875-7.574
		c1.324-1.359,3.619-4.678,3.844-4.979c0.552-0.754,13.172-4.838,17.12-8.43c3.212-1.955,13.593-10.234,14.04-11.738
		c5.294,0.149,10.155-1.055,10.492-7.378c0.004-0.033,0-0.062,0-0.094c0-0.004,0-0.011,0-0.016
		c0.149-4.203-3.419-8.726-5.582-10.385c0,0-1.076-0.791-2.278-1.85c0,0,0,0,0-0.004c0.326-0.358,0.633-0.794,0.896-1.348
		c1.107-2.294,1.266-8.01,1.155-9.782c-0.324-5.743-2.16-14.181-5.684-17.573c-1.875-1.803-3.863-2.707-6.188-3.614
		c-2.564-1.027-5.131-5.5-7.593-9.29l-0.009-0.016c-0.329-0.501-2.605-3.691-3.333-4.392c-1.771-1.956-2.546-2.708-5.301-4.515
		c-5.522-3.61-3.972-1.202-9.499-9.935l-1.988-3.009c-0.665-0.9-5.133-5.777-5.497-6.124l-0.011-0.021l-0.027-0.012
		c-2.023-1.927-5.263-4.119-7.507-5.133c-0.531-0.224-5.339-1.361-7.023-1.503c-3.654-0.318-6.876,0.042-9.275,0.529
		c-0.353,0.077-2.632,0.631-2.632,0.631c-1.277,0.192-2.547,0.424-3.819,0.658c-5.402,1-10.693,2.365-15.837,4.089
		c-31.674,11.758-57.655,35.609-72.614,66.089c-3.325,6.775-6.103,13.881-8.277,21.256c-1.454,4.925-2.625,9.969-3.52,15.116
		C32.63,137.049,27.707,157.946,32.854,185.496z M140.501,103.802c0,0.082-0.01,0.169-0.01,0.253c0,0.041,0.009,0.084,0.009,0.126
		c0,0.224-0.022,0.442-0.039,0.656c-0.273,4.005-3.279,7.249-7.173,7.87c-0.397,0.084-2.448,0.112-3.074-0.055
		c-3.905-0.796-6.84-4.245-6.84-8.381c0-4.726,3.833-8.556,8.562-8.556c3.628,0,6.725,2.269,7.966,5.459
		C140.294,102.001,140.492,102.885,140.501,103.802z M204.797,104.544c-0.446-0.905-0.829-4.926-1.439-6.926
		c-0.849-2.759-2.949-7.477-4.986-9.302c-6.745-6.05-12.866-6.681-20.602-5.777c-2.435,0.301-5.17,1.047-7.31,1.76
		c-3.106,1.034-7.703,3.691-9.135,4.897c-2.046,1.275-6.134,6.315-6.696,6.92l-6.402,8.88c-0.662,0.603-9.296,13.214-19.885,11.894
		c-0.165-0.117-0.263-0.171-0.32-0.2c0.009-0.017,0-0.049-0.002-0.082c0.002-0.015,0.011-0.035,0.002-0.065
		c5.963-0.15,9.052-1.66,13.137-6.323c0.884-1.049,1.321-1.503,2.211-2.707c0.769-0.905,1.206-1.808,1.987-2.859
		c2.646-4.216,5.085-7.378,7.843-11.893c1.43-2.257,6.295-7.978,8.069-9.333c0,0,4.159-4.223,6.627-5.718
		c2.051-1.25,3.854-2.037,5.954-3.234c6.619-3.782,19.68-2.339,25.081,0.974c1.225,0.753,1.776,1.356,2.659,2.261
		c2.21,2.253,2.868,4.963,4.086,10.084c0.341,1.442,0.958,4.013,0.98,7.105C206.692,98.856,206.353,102.798,204.797,104.544z
		 M146.351,122.907c-3.764,1.055-11.162,1.357-14.916,0c-2.872-1.051-9.099-5.867-9.909-6.511c9.182-0.083,4.021,5.998,18.975,2.557
		c0.77-0.152,4.548-1.572,5.188-1.786c3.069-1.027,11.817-5.291,11.817-5.291c5.415-2.557,12.153-4.062,18.78-4.814
		c3.646-0.455,7.627-0.607,11.268-0.301c11.827,1.202,10.611,1.956,13.812,3.013c1.108,0.446,3.164,1.164,4.37,0.866
		c0.24-0.06,0.805-0.469,0.165-0.978c-0.51-0.397-2.101-0.008-3.512-0.888c0.307-1.577,1.434-2.005,2.609-2.793l2.187,1.469l0,0
		c0.719,0.701,2.616,2.285,3.688,3.976c1.344,2.094,1.932,4.639,1.762,6.213c-0.599,5.696-6.959,5.72-10.939,4.816
		c-2.09-0.599-4.414-1.202-6.402-1.8c-2.426-0.909-4.527-1.058-6.853-1.809c-5.527-1.507-8.391-2.563-14.692-1.956
		c-5.077,0.448-9.611,1.353-14.143,2.559L146.351,122.907z M123.469,119.557c2.318,1.806,5.753,4.664,8.739,5.267
		c0.585,0.124,0.32,1.059-0.46,0.895c-2.981-0.603-7.099-3.497-9.425-5.305c-2.515-1.936-6.533-4.16-6.833-7.537
		c0.104-0.665,1.158-0.228,1.149-0.021C116.503,115.365,123.004,119.195,123.469,119.557z M101.873,109.932
		c0.041-1.52,0.318-2.984,0.926-4.182c0.549-1.206,1.188-2.2,1.845-3.254c2.655-4.365,4.34-8.942,7.433-12.854
		c2.313-2.86,4.399-5.193,8.046-6.998c1.25-0.636,5.152-3.361,5.003-2.323c0.308-0.163-3.546,2.429-3.677,2.51
		c-2.371,1.448-5.796,4.07-8.137,7.507c-2.812,4.121-4.258,7.621-6.899,11.985c-0.674,1.055-1.241,2.047-1.795,3.25
		c-0.618,1.229-0.862,2.524-0.899,4.082c-0.044,1.528,0.125,3.323,0.461,4.757c0.662,2.559,1.261,3.706,2.812,5.814
		c1.986,3.007,5.302,4.964,7.398,7.822c1.551,2.108,5.822,5.505,8.029,6.861c9.166,5.57,12.883,6.319,21.283,9.782
		c1.961,0.762,7.132,1.322,6.885,1.828c-0.258,0.532-6.408-0.536-8.57-1.216c-6.761-2.115-11.599-3.687-20.772-9.261
		c-2.207-1.349-6.627-4.962-8.168-7.069c-2.1-2.864-5.415-4.82-7.404-7.829c-1.547-2.108-2.649-4.215-3.314-6.775
		C102.034,112.969,101.843,111.425,101.873,109.932z M42.009,212.13c0.037-0.009,0.071-0.009,0.104-0.009c0.004,0,0.008,0,0.008,0
		C42.085,212.122,42.055,212.122,42.009,212.13z"/>
	<g>
		<path fill="#005A95" d="M141.918,37.847c-2.812,1.577-4.097,4.616-2.887,6.784c1.225,2.171,4.493,2.648,7.301,1.068
			c2.815-1.577,4.109-4.616,2.882-6.788C148.002,36.741,144.737,36.262,141.918,37.847z"/>
		<path fill="#005A95" d="M101.61,159.166c-1.515,1.518-2.109,3.388-1.318,4.179c0.794,0.792,2.671,0.204,4.183-1.314
			c1.52-1.518,2.1-3.388,1.317-4.18C105,157.06,103.129,157.648,101.61,159.166z"/>
		<path fill="#005A95" d="M107.249,43.834c-1.995,0.796-3.125,2.699-2.511,4.247c0.617,1.545,2.744,2.151,4.749,1.349
			c2.002-0.798,3.12-2.701,2.511-4.249C111.383,43.637,109.256,43.032,107.249,43.834z"/>
		<path fill="#005A95" d="M102.312,70.209c-2.052,1.402-2.94,3.687-1.976,5.105c0.969,1.418,3.42,1.433,5.473,0.033
			c2.063-1.402,2.943-3.688,1.981-5.105C106.82,68.822,104.363,68.808,102.312,70.209z"/>
		<path fill="#005A95" d="M85.725,63.595c-2.269,1.273-3.351,3.649-2.416,5.303c0.925,1.658,3.521,1.968,5.786,0.692
			c2.269-1.275,3.351-3.646,2.414-5.303C90.587,62.631,87.993,62.322,85.725,63.595z"/>
		<path fill="#005A95" d="M117.097,148.699c-2.363,1.098-3.62,3.38-2.823,5.103c0.808,1.724,3.367,2.233,5.718,1.135
			c2.359-1.094,3.62-3.38,2.823-5.103C122.017,148.112,119.452,147.605,117.097,148.699z"/>
		<path fill="#005A95" d="M62.035,92.077c-2.037,2.371-2.277,5.496-0.543,6.979c1.725,1.483,4.781,0.77,6.818-1.604
			c2.027-2.369,2.273-5.494,0.54-6.979C67.122,88.988,64.068,89.709,62.035,92.077z"/>
		<path fill="#005A95" d="M39.834,121.658c-0.996,1.742-0.77,3.746,0.503,4.476c1.275,0.729,3.114-0.098,4.111-1.841
			c0.992-1.744,0.766-3.749-0.507-4.474C42.669,119.089,40.83,119.912,39.834,121.658z"/>
		<path fill="#005A95" d="M64.591,131.017c-1.049,1.542-0.791,3.555,0.589,4.492c1.373,0.939,3.339,0.448,4.395-1.096
			c1.053-1.544,0.79-3.553-0.587-4.49C67.613,128.986,65.647,129.475,64.591,131.017z"/>
		<path fill="#005A95" d="M117.476,52.034c-1.72,0.966-2.355,3.088-1.426,4.747c0.931,1.658,3.084,2.216,4.8,1.249
			c1.719-0.964,2.359-3.095,1.417-4.749C121.347,51.625,119.198,51.064,117.476,52.034z"/>
		<path fill="#005A95" d="M110.016,104.778c-1.859,0.866-2.728,2.965-1.923,4.691c0.79,1.72,2.954,2.413,4.822,1.545
			c1.868-0.866,2.737-2.967,1.933-4.69C114.046,104.601,111.89,103.908,110.016,104.778z"/>
		<path fill="#005A95" d="M40.49,171.835c0.188,1.858,1.685,3.229,3.339,3.064c1.657-0.167,2.851-1.813,2.663-3.669
			c-0.191-1.856-1.688-3.225-3.343-3.062C41.496,168.339,40.302,169.979,40.49,171.835z"/>
		<path fill="#005A95" d="M137.28,55.394c-1.686,0.805-2.476,2.67-1.757,4.174c0.711,1.507,2.663,2.074,4.352,1.271
			c1.685-0.801,2.467-2.669,1.753-4.176C140.912,55.161,138.968,54.593,137.28,55.394z"/>
		<path fill="#005A95" d="M95.153,177.087c-0.513,1.756,0.554,3.606,2.378,4.135c1.823,0.534,3.717-0.457,4.23-2.208
			c0.51-1.754-0.563-3.606-2.385-4.14C97.557,174.345,95.667,175.335,95.153,177.087z"/>
		<path fill="#005A95" d="M39.94,200.769c0.412,1.362,1.726,2.173,2.939,1.811c1.216-0.362,1.868-1.764,1.467-3.125
			c-0.412-1.36-1.726-2.172-2.943-1.811C40.195,198.008,39.538,199.41,39.94,200.769z"/>
		<path fill="#005A95" d="M87.424,189.505c-0.326,1.149,0.362,2.368,1.56,2.714c1.202,0.351,2.442-0.297,2.778-1.451
			c0.338-1.149-0.362-2.367-1.556-2.715C89.011,187.705,87.764,188.354,87.424,189.505z"/>
		<path fill="#005A95" d="M82.894,202.898c0.169,1.638,1.31,2.862,2.55,2.737c1.243-0.128,2.11-1.563,1.943-3.202
			c-0.169-1.634-1.318-2.86-2.555-2.733C83.598,199.83,82.724,201.259,82.894,202.898z"/>
		<path fill="#005A95" d="M139.826,153.46c-1.165,0.53-1.797,1.646-1.408,2.492c0.377,0.849,1.633,1.112,2.799,0.584
			c1.158-0.526,1.792-1.638,1.41-2.489C142.236,153.197,140.983,152.938,139.826,153.46z"/>
		<path fill="#005A95" d="M113.571,163.963c-0.338,1.149,0.362,2.365,1.561,2.717c1.201,0.347,2.438-0.301,2.771-1.455
			c0.342-1.153-0.363-2.367-1.557-2.713C115.148,162.163,113.903,162.81,113.571,163.963z"/>
		<path fill="#005A95" d="M45.155,185.537c-0.336,1.149,0.367,2.367,1.561,2.713c1.196,0.35,2.435-0.297,2.774-1.45
			c0.334-1.151-0.362-2.368-1.56-2.718C46.731,183.736,45.491,184.384,45.155,185.537z"/>
		<path fill="#005A95" d="M47.889,223.375c1.092,1.231,2.732,1.558,3.661,0.729c0.941-0.828,0.805-2.501-0.287-3.731
			c-1.094-1.227-2.738-1.553-3.669-0.724C46.66,220.477,46.791,222.144,47.889,223.375z"/>
		<path fill="#005A95" d="M133.427,85.733c-0.206,2.139,0.528,3.956,1.646,4.062c1.111,0.11,2.179-1.537,2.381-3.671
			c0.21-2.139-0.52-3.957-1.64-4.064C134.703,81.952,133.629,83.598,133.427,85.733z"/>
		<path fill="#005A95" d="M124.081,89.069c-0.34,1.149,0.363,2.363,1.558,2.713c1.199,0.351,2.441-0.297,2.777-1.45
			c0.329-1.153-0.362-2.367-1.564-2.717C125.657,87.266,124.415,87.917,124.081,89.069z"/>
		<path fill="#005A95" d="M77.25,80.356c-1.055,1.542-0.792,3.555,0.585,4.492c1.375,0.939,3.343,0.451,4.392-1.096
			c1.056-1.544,0.79-3.553-0.589-4.49C80.266,78.324,78.296,78.814,77.25,80.356z"/>
		<path fill="#005A95" d="M151.757,151.187c-0.336,1.149,0.364,2.367,1.563,2.718c1.194,0.346,2.435-0.302,2.774-1.451
			c0.332-1.153-0.366-2.371-1.564-2.72C153.333,149.388,152.095,150.036,151.757,151.187z"/>
		<path fill="#005A95" d="M93.063,233.494c0.812,1.43,2.351,2.097,3.434,1.481c1.083-0.615,1.307-2.278,0.494-3.708
			c-0.814-1.434-2.351-2.099-3.433-1.483C92.464,230.399,92.25,232.059,93.063,233.494z"/>
		<path fill="#005A95" d="M92.857,213.837c-0.336,1.149,0.362,2.365,1.561,2.713c1.195,0.349,2.433-0.304,2.774-1.45
			c0.338-1.153-0.363-2.367-1.564-2.718C94.434,212.033,93.191,212.684,92.857,213.837z"/>
		<path fill="#005A95" d="M63.345,245.649c0.863,1.133,2.386,1.422,3.388,0.652c1.004-0.77,1.128-2.31,0.263-3.438
			c-0.858-1.133-2.386-1.425-3.388-0.652C62.603,242.977,62.483,244.521,63.345,245.649z"/>
		<path fill="#005A95" d="M80.803,261.613c-0.336,1.153,0.368,2.366,1.563,2.718c1.194,0.351,2.44-0.302,2.771-1.451
			c0.336-1.152-0.353-2.371-1.559-2.716C82.384,259.814,81.141,260.463,80.803,261.613z"/>
		<path fill="#034D78" d="M127.465,104.213c0,1.524,1.24,2.761,2.759,2.761c1.524,0,2.766-1.236,2.766-2.761
			c0-1.523-1.241-2.76-2.766-2.76C128.706,101.454,127.465,102.69,127.465,104.213z"/>
	</g>
	
		<linearGradient id="SVGID_5_" gradientUnits="userSpaceOnUse" x1="2109.0532" y1="23.7144" x2="2162.2263" y2="23.7144" gradientTransform="matrix(-1 0 0 1 2223.5479 0)">
		<stop  offset="0" style="stop-color:#010101"/>
		<stop  offset="0.0119" style="stop-color:#040506"/>
		<stop  offset="0.1005" style="stop-color:#111A1D"/>
		<stop  offset="0.1998" style="stop-color:#16242B"/>
		<stop  offset="0.3125" style="stop-color:#172B34"/>
		<stop  offset="0.4464" style="stop-color:#172F3A"/>
		<stop  offset="0.622" style="stop-color:#16323E"/>
		<stop  offset="1" style="stop-color:#16323F"/>
	</linearGradient>
	<path opacity="0.5" fill="url(#SVGID_5_)" d="M61.322,11.183c0,0,40.091,7.104,53.085,24.36c-0.566,0.25-1.174,0.442-1.73,0.703
		C111.499,34.264,95.882,19.295,61.322,11.183z"/>
	
		<linearGradient id="SVGID_6_" gradientUnits="userSpaceOnUse" x1="2116.0005" y1="-175.981" x2="2167.7939" y2="-175.981" gradientTransform="matrix(-0.993 0.1182 0.1182 0.993 2220.0627 -45.2941)">
		<stop  offset="0" style="stop-color:#010101"/>
		<stop  offset="0.0119" style="stop-color:#040506"/>
		<stop  offset="0.1005" style="stop-color:#111A1D"/>
		<stop  offset="0.1998" style="stop-color:#16242B"/>
		<stop  offset="0.3125" style="stop-color:#172B34"/>
		<stop  offset="0.4464" style="stop-color:#172F3A"/>
		<stop  offset="0.622" style="stop-color:#16323E"/>
		<stop  offset="1" style="stop-color:#16323F"/>
	</linearGradient>
	<path opacity="0.5" fill="url(#SVGID_6_)" d="M45.012,22.491c0,0,40.181,6.221,53.51,20.62c-0.589,0.332-1.175,0.668-1.76,1.006
		C92.303,39.903,77.464,28.232,45.012,22.491z"/>
	
		<linearGradient id="SVGID_7_" gradientUnits="userSpaceOnUse" x1="2114.5317" y1="-56.8472" x2="2163.0334" y2="-56.8472" gradientTransform="matrix(-0.9984 0.0559 0.0559 0.9984 2205.6121 -22.8422)">
		<stop  offset="0" style="stop-color:#010101"/>
		<stop  offset="0.0119" style="stop-color:#040506"/>
		<stop  offset="0.1005" style="stop-color:#111A1D"/>
		<stop  offset="0.1998" style="stop-color:#16242B"/>
		<stop  offset="0.3125" style="stop-color:#172B34"/>
		<stop  offset="0.4464" style="stop-color:#172F3A"/>
		<stop  offset="0.622" style="stop-color:#16323E"/>
		<stop  offset="1" style="stop-color:#16323F"/>
	</linearGradient>
	<path opacity="0.5" fill="url(#SVGID_7_)" d="M42.215,29.792c0,0,32.403,6.21,46.357,19.537c-0.515,0.352-1.033,0.713-1.542,1.074
		C81.636,45.267,68.971,36.274,42.215,29.792z"/>
	
		<linearGradient id="SVGID_8_" gradientUnits="userSpaceOnUse" x1="2135.5669" y1="-112.4526" x2="2184.0674" y2="-112.4526" gradientTransform="matrix(-0.9957 0.0927 0.0927 0.9957 2219.5203 -36.2215)">
		<stop  offset="0" style="stop-color:#010101"/>
		<stop  offset="0.0119" style="stop-color:#040506"/>
		<stop  offset="0.1005" style="stop-color:#111A1D"/>
		<stop  offset="0.1998" style="stop-color:#16242B"/>
		<stop  offset="0.3125" style="stop-color:#172B34"/>
		<stop  offset="0.4464" style="stop-color:#172F3A"/>
		<stop  offset="0.622" style="stop-color:#16323E"/>
		<stop  offset="1" style="stop-color:#16323F"/>
	</linearGradient>
	<path opacity="0.5" fill="url(#SVGID_8_)" d="M33.525,44.631c0,0,26.825,4.119,42.585,14.436c-0.438,0.387-0.888,0.782-1.316,1.173
		C67.751,55.354,55.119,49.023,33.525,44.631z"/>
	
		<linearGradient id="SVGID_9_" gradientUnits="userSpaceOnUse" x1="2146.2173" y1="-157.5093" x2="2182.9082" y2="-157.5093" gradientTransform="matrix(-0.992 0.1261 0.1261 0.992 2213.5889 -49.7015)">
		<stop  offset="0" style="stop-color:#010101"/>
		<stop  offset="0.0119" style="stop-color:#040506"/>
		<stop  offset="0.1005" style="stop-color:#111A1D"/>
		<stop  offset="0.1998" style="stop-color:#16242B"/>
		<stop  offset="0.3125" style="stop-color:#172B34"/>
		<stop  offset="0.4464" style="stop-color:#172F3A"/>
		<stop  offset="0.622" style="stop-color:#16323E"/>
		<stop  offset="1" style="stop-color:#16323F"/>
	</linearGradient>
	<path opacity="0.5" fill="url(#SVGID_9_)" d="M27.317,61.731c0,0,14.657-2.982,36.547,9.648c-0.367,0.419-0.729,0.847-1.088,1.275
		C58.113,69.855,42.309,61.122,27.317,61.731z"/>
	
		<linearGradient id="SVGID_10_" gradientUnits="userSpaceOnUse" x1="2077.2095" y1="-463.791" x2="2113.8987" y2="-463.791" gradientTransform="matrix(-0.9505 0.3107 0.3107 0.9505 2174.3015 -126.2274)">
		<stop  offset="0" style="stop-color:#010101"/>
		<stop  offset="0.0119" style="stop-color:#040506"/>
		<stop  offset="0.1005" style="stop-color:#111A1D"/>
		<stop  offset="0.1998" style="stop-color:#16242B"/>
		<stop  offset="0.3125" style="stop-color:#172B34"/>
		<stop  offset="0.4464" style="stop-color:#172F3A"/>
		<stop  offset="0.622" style="stop-color:#16323E"/>
		<stop  offset="1" style="stop-color:#16323F"/>
	</linearGradient>
	<path opacity="0.5" fill="url(#SVGID_10_)" d="M18.888,83.443c0,0,12.616-5.188,34.55,1.556c-0.308,0.457-0.611,0.913-0.911,1.377
		C45.334,84.079,31.205,80.554,18.888,83.443z"/>
	
		<linearGradient id="SVGID_11_" gradientUnits="userSpaceOnUse" x1="2107.6509" y1="-358.916" x2="2144.3398" y2="-358.916" gradientTransform="matrix(-0.9662 0.2579 0.2579 0.9662 2183.7424 -104.3296)">
		<stop  offset="0" style="stop-color:#010101"/>
		<stop  offset="0.0119" style="stop-color:#040506"/>
		<stop  offset="0.1005" style="stop-color:#111A1D"/>
		<stop  offset="0.1998" style="stop-color:#16242B"/>
		<stop  offset="0.3125" style="stop-color:#172B34"/>
		<stop  offset="0.4464" style="stop-color:#172F3A"/>
		<stop  offset="0.622" style="stop-color:#16323E"/>
		<stop  offset="1" style="stop-color:#16323F"/>
	</linearGradient>
	<path opacity="0.5" fill="url(#SVGID_11_)" d="M18.124,97.436c0,0,10.092-3.506,27.312,1.179c-0.224,0.438-0.438,0.874-0.66,1.313
		C37.331,97.73,27.328,95.808,18.124,97.436z"/>
	
		<linearGradient id="SVGID_12_" gradientUnits="userSpaceOnUse" x1="2038.4155" y1="-567.2168" x2="2067.522" y2="-567.2168" gradientTransform="matrix(-0.9227 0.3856 0.3856 0.9227 2142.9993 -155.3914)">
		<stop  offset="0" style="stop-color:#010101"/>
		<stop  offset="0.0119" style="stop-color:#040506"/>
		<stop  offset="0.1005" style="stop-color:#111A1D"/>
		<stop  offset="0.1998" style="stop-color:#16242B"/>
		<stop  offset="0.3125" style="stop-color:#172B34"/>
		<stop  offset="0.4464" style="stop-color:#172F3A"/>
		<stop  offset="0.622" style="stop-color:#16323E"/>
		<stop  offset="1" style="stop-color:#16323F"/>
	</linearGradient>
	<path opacity="0.5" fill="url(#SVGID_12_)" d="M14.882,114.418c0,0,8.512-4.333,24.293-1.583c-0.143,0.387-0.293,0.77-0.428,1.157
		C32.515,112.798,23.025,111.804,14.882,114.418z"/>
	
		<linearGradient id="SVGID_13_" gradientUnits="userSpaceOnUse" x1="1921.5405" y1="-778.8452" x2="1950.6523" y2="-778.8452" gradientTransform="matrix(-0.8571 0.5151 0.5151 0.8571 2088.9861 -203.9683)">
		<stop  offset="0" style="stop-color:#010101"/>
		<stop  offset="0.0367" style="stop-color:#10151A"/>
		<stop  offset="0.0998" style="stop-color:#1B2631"/>
		<stop  offset="0.1695" style="stop-color:#1E3243"/>
		<stop  offset="0.245" style="stop-color:#1E3B53"/>
		<stop  offset="0.3284" style="stop-color:#1A4260"/>
		<stop  offset="0.423" style="stop-color:#13476B"/>
		<stop  offset="0.5353" style="stop-color:#0B4B72"/>
		<stop  offset="0.6828" style="stop-color:#054C77"/>
		<stop  offset="1" style="stop-color:#034D78"/>
	</linearGradient>
	<path opacity="0.5" fill="url(#SVGID_13_)" d="M13.989,130.086c0,0,6.989-4.938,21.296-5.102c-0.102,0.387-0.198,0.766-0.3,1.153
		C28.811,126.081,20.701,126.798,13.989,130.086z"/>
	
		<linearGradient id="SVGID_14_" gradientUnits="userSpaceOnUse" x1="1884.9272" y1="-821.5981" x2="1914.042" y2="-821.5981" gradientTransform="matrix(-0.8368 0.5474 0.5474 0.8368 2068.978 -214.5837)">
		<stop  offset="0" style="stop-color:#010101"/>
		<stop  offset="0.0367" style="stop-color:#10151A"/>
		<stop  offset="0.0998" style="stop-color:#1B2631"/>
		<stop  offset="0.1695" style="stop-color:#1E3243"/>
		<stop  offset="0.245" style="stop-color:#1E3B53"/>
		<stop  offset="0.3284" style="stop-color:#1A4260"/>
		<stop  offset="0.423" style="stop-color:#13476B"/>
		<stop  offset="0.5353" style="stop-color:#0B4B72"/>
		<stop  offset="0.6828" style="stop-color:#054C77"/>
		<stop  offset="1" style="stop-color:#034D78"/>
	</linearGradient>
	<path opacity="0.5" fill="url(#SVGID_14_)" d="M32.219,139.098c-5.217,0.522-11.062,1.758-16.037,4.438
		c0,0,5.246-4.02,16.234-5.473C32.354,138.356,32.29,138.69,32.219,139.098z"/>
	
		<linearGradient id="SVGID_15_" gradientUnits="userSpaceOnUse" x1="1581.9087" y1="-1152.1709" x2="1594.5493" y2="-1152.1709" gradientTransform="matrix(-0.6643 0.7475 0.7475 0.6643 1940.377 -270.3552)">
		<stop  offset="0" style="stop-color:#010101"/>
		<stop  offset="0.0367" style="stop-color:#10151A"/>
		<stop  offset="0.0998" style="stop-color:#1B2631"/>
		<stop  offset="0.1695" style="stop-color:#1E3243"/>
		<stop  offset="0.245" style="stop-color:#1E3B53"/>
		<stop  offset="0.3284" style="stop-color:#1A4260"/>
		<stop  offset="0.423" style="stop-color:#13476B"/>
		<stop  offset="0.5353" style="stop-color:#0B4B72"/>
		<stop  offset="0.6828" style="stop-color:#054C77"/>
		<stop  offset="1" style="stop-color:#034D78"/>
	</linearGradient>
	<path opacity="0.5" fill="url(#SVGID_15_)" d="M29.998,149.027c0,0-7.761,1.06-12.229,5.288c0,0,3.306-4.318,12.382-5.907
		L29.998,149.027z"/>
	
		<linearGradient id="SVGID_16_" gradientUnits="userSpaceOnUse" x1="1329.4634" y1="-1307.4819" x2="1342.1023" y2="-1307.4819" gradientTransform="matrix(-0.5197 0.8544 0.8544 0.5197 1838.552 -286.5977)">
		<stop  offset="0" style="stop-color:#010101"/>
		<stop  offset="0.0367" style="stop-color:#10151A"/>
		<stop  offset="0.0998" style="stop-color:#1B2631"/>
		<stop  offset="0.1695" style="stop-color:#1E3243"/>
		<stop  offset="0.245" style="stop-color:#1E3B53"/>
		<stop  offset="0.3284" style="stop-color:#1A4260"/>
		<stop  offset="0.423" style="stop-color:#13476B"/>
		<stop  offset="0.5353" style="stop-color:#0B4B72"/>
		<stop  offset="0.6828" style="stop-color:#054C77"/>
		<stop  offset="1" style="stop-color:#034D78"/>
	</linearGradient>
	<path opacity="0.5" fill="url(#SVGID_16_)" d="M22.127,179.487c0,0,2.049-4.014,8.949-7.142c0.019,0.191,0.035,0.378,0.053,0.566
		C28.654,174,24.547,176.187,22.127,179.487z"/>
	
		<linearGradient id="SVGID_17_" gradientUnits="userSpaceOnUse" x1="1646.8042" y1="-1090.709" x2="1659.4445" y2="-1090.709" gradientTransform="matrix(-0.6883 0.7254 0.7254 0.6883 1960.5186 -267.4867)">
		<stop  offset="0" style="stop-color:#010101"/>
		<stop  offset="0.0367" style="stop-color:#10151A"/>
		<stop  offset="0.0998" style="stop-color:#1B2631"/>
		<stop  offset="0.1695" style="stop-color:#1E3243"/>
		<stop  offset="0.245" style="stop-color:#1E3B53"/>
		<stop  offset="0.3284" style="stop-color:#1A4260"/>
		<stop  offset="0.423" style="stop-color:#13476B"/>
		<stop  offset="0.5353" style="stop-color:#0B4B72"/>
		<stop  offset="0.6828" style="stop-color:#054C77"/>
		<stop  offset="1" style="stop-color:#034D78"/>
	</linearGradient>
	<path opacity="0.5" fill="url(#SVGID_17_)" d="M26.419,184.873c0,0,1.666-2.033,5.734-3.705c0.021,0.136,0.043,0.277,0.065,0.417
		C30.214,182.318,28.104,183.374,26.419,184.873z"/>
	
		<linearGradient id="SVGID_18_" gradientUnits="userSpaceOnUse" x1="1651.5581" y1="-1084.9404" x2="1662.5836" y2="-1084.9404" gradientTransform="matrix(-0.6883 0.7254 0.7254 0.6883 1960.5186 -267.4867)">
		<stop  offset="0" style="stop-color:#010101"/>
		<stop  offset="0.0367" style="stop-color:#10151A"/>
		<stop  offset="0.0998" style="stop-color:#1B2631"/>
		<stop  offset="0.1695" style="stop-color:#1E3243"/>
		<stop  offset="0.245" style="stop-color:#1E3B53"/>
		<stop  offset="0.3284" style="stop-color:#1A4260"/>
		<stop  offset="0.423" style="stop-color:#13476B"/>
		<stop  offset="0.5353" style="stop-color:#0B4B72"/>
		<stop  offset="0.6828" style="stop-color:#054C77"/>
		<stop  offset="1" style="stop-color:#034D78"/>
	</linearGradient>
	<path opacity="0.5" fill="url(#SVGID_18_)" d="M28.756,191.417c0,0,1.332-1.999,4.589-3.666c0.03,0.133,0.059,0.263,0.085,0.398
		C31.818,188.886,30.115,189.937,28.756,191.417z"/>
	
		<linearGradient id="SVGID_19_" gradientUnits="userSpaceOnUse" x1="1654.2036" y1="-1078.4751" x2="1665.241" y2="-1078.4751" gradientTransform="matrix(-0.6883 0.7254 0.7254 0.6883 1960.5186 -267.4867)">
		<stop  offset="0" style="stop-color:#010101"/>
		<stop  offset="0.0367" style="stop-color:#10151A"/>
		<stop  offset="0.0998" style="stop-color:#1B2631"/>
		<stop  offset="0.1695" style="stop-color:#1E3243"/>
		<stop  offset="0.245" style="stop-color:#1E3B53"/>
		<stop  offset="0.3284" style="stop-color:#1A4260"/>
		<stop  offset="0.423" style="stop-color:#13476B"/>
		<stop  offset="0.5353" style="stop-color:#0B4B72"/>
		<stop  offset="0.6828" style="stop-color:#054C77"/>
		<stop  offset="1" style="stop-color:#034D78"/>
	</linearGradient>
	<path opacity="0.5" fill="url(#SVGID_19_)" d="M31.795,197.963c0,0,0.978-1.455,3.292-2.917c0.027,0.104,0.044,0.208,0.071,0.314
		C33.971,196.028,32.788,196.88,31.795,197.963z"/>
	
		<linearGradient id="SVGID_20_" gradientUnits="userSpaceOnUse" x1="1655.9331" y1="-1073.6255" x2="1666.9711" y2="-1073.6255" gradientTransform="matrix(-0.6883 0.7254 0.7254 0.6883 1960.5186 -267.4867)">
		<stop  offset="0" style="stop-color:#010101"/>
		<stop  offset="0.0367" style="stop-color:#10151A"/>
		<stop  offset="0.0998" style="stop-color:#1B2631"/>
		<stop  offset="0.1695" style="stop-color:#1E3243"/>
		<stop  offset="0.245" style="stop-color:#1E3B53"/>
		<stop  offset="0.3284" style="stop-color:#1A4260"/>
		<stop  offset="0.423" style="stop-color:#13476B"/>
		<stop  offset="0.5353" style="stop-color:#0B4B72"/>
		<stop  offset="0.6828" style="stop-color:#054C77"/>
		<stop  offset="1" style="stop-color:#034D78"/>
	</linearGradient>
	<path opacity="0.5" fill="url(#SVGID_20_)" d="M34.236,202.666c0,0,0.683-1.019,2.259-2.212c0.019,0.083,0.049,0.158,0.073,0.24
		C35.737,201.244,34.945,201.899,34.236,202.666z"/>
	
		<linearGradient id="SVGID_21_" gradientUnits="userSpaceOnUse" x1="1656.8599" y1="-1069.1582" x2="1667.8411" y2="-1069.1582" gradientTransform="matrix(-0.6883 0.7254 0.7254 0.6883 1960.5186 -267.4867)">
		<stop  offset="0" style="stop-color:#010101"/>
		<stop  offset="0.0367" style="stop-color:#10151A"/>
		<stop  offset="0.0998" style="stop-color:#1B2631"/>
		<stop  offset="0.1695" style="stop-color:#1E3243"/>
		<stop  offset="0.245" style="stop-color:#1E3B53"/>
		<stop  offset="0.3284" style="stop-color:#1A4260"/>
		<stop  offset="0.423" style="stop-color:#13476B"/>
		<stop  offset="0.5353" style="stop-color:#0B4B72"/>
		<stop  offset="0.6828" style="stop-color:#054C77"/>
		<stop  offset="1" style="stop-color:#034D78"/>
	</linearGradient>
	<path opacity="0.5" fill="url(#SVGID_21_)" d="M36.97,206.458c0,0,0.344-0.505,1.082-1.214c0.021,0.047,0.035,0.094,0.049,0.139
		C37.708,205.714,37.326,206.072,36.97,206.458z"/>
	<path fill="#291323" d="M42.134,212.281c0,0,0.004,0,0.01,0c-0.041,0-0.078,0-0.122,0.008
		C42.058,212.281,42.095,212.281,42.134,212.281z"/>
	<g>
		
			<radialGradient id="SVGID_22_" cx="2138.0513" cy="208.7847" r="119.4062" gradientTransform="matrix(-1 0 0 1 2223.5479 0)" gradientUnits="userSpaceOnUse">
			<stop  offset="0" style="stop-color:#0A3E3E"/>
			<stop  offset="0.2358" style="stop-color:#0B403F"/>
			<stop  offset="0.3625" style="stop-color:#104543"/>
			<stop  offset="0.4633" style="stop-color:#174E48"/>
			<stop  offset="0.5504" style="stop-color:#215C50"/>
			<stop  offset="0.6288" style="stop-color:#2D6F5A"/>
			<stop  offset="0.6998" style="stop-color:#3C8865"/>
			<stop  offset="0.7438" style="stop-color:#489C6D"/>
			<stop  offset="1" style="stop-color:#28693C"/>
		</radialGradient>
		<path fill="url(#SVGID_22_)" d="M0.026,188.65c-0.004,0.033,0.006,0.055,0.006,0.085c0.042-1.385-0.037-3.72,1.644-7.273
			c0.019-0.041,0.039-0.102,0.053-0.146c2.497-6.185,7.342-13.127,11.795-18.767c5.042-6.393,11.004-12.352,11.004-12.352l0,0
			c5.042-4.757,20.769-14.461,24.872-20.622c0.405-0.603,2.292-2.322,2.581-3.683c14.794,9.99,11.715,41.261,11.689,41.226
			c-0.041-0.063-0.633-0.405-0.595-0.349c-10.642-6.934-25.489-1.499-37.765,5.757c-0.004-0.037-0.008-0.069-0.017-0.105
			c-2.663,1.579-5.192,3.235-7.543,4.877c-0.295,0.272-0.543,0.477-0.76,0.647c-2.162,1.528-4.146,3.019-5.902,4.396
			c-0.228,0.161-0.464,0.33-0.684,0.477c-0.227,0.179-0.42,0.381-0.63,0.568c-4.011,3.221-6.549,5.588-6.773,5.804
			c-0.633,0.403-1.143,0.667-1.564,0.807c-0.031,0.021-0.066,0.028-0.094,0.037c-0.094,0.028-0.191,0.061-0.271,0.077
			c-0.138,0.024-0.255,0.029-0.363,0.021c-0.008-0.002-0.022-0.008-0.037-0.008C-0.188,189.992,0.021,188.687,0.026,188.65z"/>
	</g>
	
		<linearGradient id="SVGID_23_" gradientUnits="userSpaceOnUse" x1="2051.6519" y1="-417.8032" x2="2122.0439" y2="-417.8032" gradientTransform="matrix(-0.9695 0.2453 0.2453 0.9695 2219.5486 -89.9132)">
		<stop  offset="0" style="stop-color:#010101"/>
		<stop  offset="0.0119" style="stop-color:#040506"/>
		<stop  offset="0.1005" style="stop-color:#111A1D"/>
		<stop  offset="0.1998" style="stop-color:#16242B"/>
		<stop  offset="0.3125" style="stop-color:#172B34"/>
		<stop  offset="0.4464" style="stop-color:#172F3A"/>
		<stop  offset="0.622" style="stop-color:#16323E"/>
		<stop  offset="1" style="stop-color:#16323F"/>
	</linearGradient>
	<path opacity="0.5" fill="url(#SVGID_23_)" d="M54.157,3.497c0,0,41.444-11.594,79.299,26.898c-0.576,0.104-1.621,0.232-2.19,0.416
		C129.653,29.183,98.522-4.448,54.157,3.497z"/>
</g>
<g>
	
		<linearGradient id="SVGID_24_" gradientUnits="userSpaceOnUse" x1="96.1074" y1="3.5879" x2="131.1782" y2="3.5879" gradientTransform="matrix(0.9242 0.382 -0.382 0.9242 138.0948 43.4655)">
		<stop  offset="0" style="stop-color:#C2E0EF"/>
		<stop  offset="0.5" style="stop-color:#9CD0E8"/>
		<stop  offset="0.748" style="stop-color:#8FCBE5"/>
		<stop  offset="1" style="stop-color:#88C8E4"/>
	</linearGradient>
	<path fill="url(#SVGID_24_)" d="M257.96,96.888c-3.699,8.954-13.952,13.207-22.904,9.509c-8.949-3.699-13.208-13.955-9.509-22.906
		c3.7-8.949,13.954-13.203,22.905-9.503C257.403,77.688,261.658,87.94,257.96,96.888z"/>
	<circle fill="#FFFFFF" cx="236.787" cy="82.434" r="3.774"/>
</g>
<g>
	
		<linearGradient id="SVGID_25_" gradientUnits="userSpaceOnUse" x1="89.6777" y1="-40.4146" x2="115.1182" y2="-40.4146" gradientTransform="matrix(0.9242 0.382 -0.382 0.9242 138.0948 43.4655)">
		<stop  offset="0" style="stop-color:#C2E0EF"/>
		<stop  offset="0.5" style="stop-color:#9CD0E8"/>
		<stop  offset="0.748" style="stop-color:#8FCBE5"/>
		<stop  offset="1" style="stop-color:#88C8E4"/>
	</linearGradient>
	<path fill="url(#SVGID_25_)" d="M259.926,50.086c-2.686,6.495-10.123,9.579-16.614,6.898c-6.491-2.685-9.581-10.123-6.898-16.614
		c2.683-6.493,10.122-9.579,16.615-6.894C259.518,36.159,262.608,43.596,259.926,50.086z"/>
	<circle fill="#FFFFFF" cx="244.566" cy="39.601" r="2.738"/>
</g>
<g>
	
		<linearGradient id="SVGID_26_" gradientUnits="userSpaceOnUse" x1="55.7168" y1="-64.5977" x2="72.0518" y2="-64.5977" gradientTransform="matrix(0.9242 0.382 -0.382 0.9242 138.0948 43.4655)">
		<stop  offset="0" style="stop-color:#C2E0EF"/>
		<stop  offset="0.5" style="stop-color:#9CD0E8"/>
		<stop  offset="0.748" style="stop-color:#8FCBE5"/>
		<stop  offset="1" style="stop-color:#88C8E4"/>
	</linearGradient>
	<circle fill="url(#SVGID_26_)" cx="221.813" cy="8.166" r="8.167"/>
	<circle fill="#FFFFFF" cx="219.499" cy="4.554" r="1.757"/>
</g>
</svg>
