<svg version="1.1" xmlns="http://www.w3.org/2000/svg" xmlns:xlink="http://www.w3.org/1999/xlink" width="346" height="310"><style xmlns="http://www.w3.org/1999/xhtml"></style><defs/><g transform="translate(0,0)"><g><rect fill="#FFFFFF" stroke="none" x="0" y="0" width="346" height="310"/></g><g transform="translate(0,0) matrix(1,0,0,1,20,200)"><g><g transform="translate(0,0) scale(0.6,0.6)"><g><path fill="rgb(255,255,255)" stroke="none" d="M 100 50 A 50 50 0 1 0 99.99997500000208 50.04999999166668 Z" fill-opacity="0.008"/><g transform="scale(1.6666666666666667,1.6666666666666667)"><path fill="none" stroke="#cc0000" d="M 30 0 M 30 0 C 46.568540999999996 0 60 13.431459 60 30 C 60 46.568540999999996 46.568540999999996 60 30 60 C 13.431459 60 0 46.568540999999996 0 30 C 0 13.431459 13.431459 0 30 0 Z" stroke-miterlimit="10" stroke-width="2"/></g></g></g></g></g><g transform="matrix(1,0,0,1,29,219)"><g transform="translate(28,0) matrix(1,0,0,1,0,0) translate(-28,0)"><g><rect fill="rgb(0,0,0)" stroke="none" x="0" y="0" width="42" height="22" fill-opacity="0"/></g></g><g transform="translate(28,0) matrix(1,0,0,1,0,0) translate(-28,0)"><g><rect fill="rgb(0,0,0)" stroke="none" x="0" y="0" width="42" height="22" fill-opacity="0"/></g></g><g transform="translate(28,0) matrix(1,0,0,1,0,0) translate(-28,0)"><g><rect fill="rgb(0,0,0)" stroke="none" x="14" y="0" width="14" height="22" fill-opacity="0"/></g></g><g transform="translate(28,0) matrix(1,0,0,1,0,0) translate(-28,0)"><g><rect fill="rgb(0,0,0)" stroke="none" x="14" y="0" width="14" height="22" fill-opacity="0"/></g><text fill="rgb(204, 0, 0)" stroke="none" font-family="Arial" font-size="20px" font-style="normal" font-weight="bold" text-decoration="" line-height="22.75px" x="14" y="18">V</text></g></g><g transform="translate(0,0) matrix(1,0,0,1,160,60)"><g><g transform="translate(0,0) scale(0.6,0.6)"><g><path fill="rgb(255,255,255)" stroke="none" d="M 100 50 A 50 50 0 1 0 99.99997500000208 50.04999999166668 Z" fill-opacity="0.008"/><g transform="scale(1.6666666666666667,1.6666666666666667)"><path fill="none" stroke="#cc0000" d="M 30 0 M 30 0 C 46.568540999999996 0 60 13.431459 60 30 C 60 46.568540999999996 46.568540999999996 60 30 60 C 13.431459 60 0 46.568540999999996 0 30 C 0 13.431459 13.431459 0 30 0 Z" stroke-miterlimit="10" stroke-width="2"/></g></g></g></g></g><g transform="matrix(1,0,0,1,169,79)"><g transform="translate(28,0) matrix(1,0,0,1,0,0) translate(-28,0)"><g><rect fill="rgb(0,0,0)" stroke="none" x="0" y="0" width="42" height="22" fill-opacity="0"/></g></g><g transform="translate(28,0) matrix(1,0,0,1,0,0) translate(-28,0)"><g><rect fill="rgb(0,0,0)" stroke="none" x="0" y="0" width="42" height="22" fill-opacity="0"/></g></g><g transform="translate(28,0) matrix(1,0,0,1,0,0) translate(-28,0)"><g><rect fill="rgb(0,0,0)" stroke="none" x="14" y="0" width="14" height="22" fill-opacity="0"/></g></g><g transform="translate(28,0) matrix(1,0,0,1,0,0) translate(-28,0)"><g><rect fill="rgb(0,0,0)" stroke="none" x="14" y="0" width="14" height="22" fill-opacity="0"/></g><text fill="rgb(204, 0, 0)" stroke="none" font-family="Arial" font-size="20px" font-style="normal" font-weight="bold" text-decoration="" line-height="22.75px" x="14" y="18">V</text></g></g><g transform="translate(0,0) matrix(1,0,0,1,220,230)"><g><g transform="translate(0,0) scale(0.6,0.6)"><g><path fill="rgb(255,255,255)" stroke="none" d="M 100 50 A 50 50 0 1 0 99.99997500000208 50.04999999166668 Z" fill-opacity="0.008"/><g transform="scale(1.6666666666666667,1.6666666666666667)"><path fill="none" stroke="#cc0000" d="M 30 0 M 30 0 C 46.568540999999996 0 60 13.431459 60 30 C 60 46.568540999999996 46.568540999999996 60 30 60 C 13.431459 60 0 46.568540999999996 0 30 C 0 13.431459 13.431459 0 30 0 Z" stroke-miterlimit="10" stroke-width="2"/></g></g></g></g></g><g transform="matrix(1,0,0,1,229,249)"><g transform="translate(28,0) matrix(1,0,0,1,0,0) translate(-28,0)"><g><rect fill="rgb(0,0,0)" stroke="none" x="0" y="0" width="42" height="22" fill-opacity="0"/></g></g><g transform="translate(28,0) matrix(1,0,0,1,0,0) translate(-28,0)"><g><rect fill="rgb(0,0,0)" stroke="none" x="0" y="0" width="42" height="22" fill-opacity="0"/></g></g><g transform="translate(28,0) matrix(1,0,0,1,0,0) translate(-28,0)"><g><rect fill="rgb(0,0,0)" stroke="none" x="14" y="0" width="14" height="22" fill-opacity="0"/></g></g><g transform="translate(28,0) matrix(1,0,0,1,0,0) translate(-28,0)"><g><rect fill="rgb(0,0,0)" stroke="none" x="14" y="0" width="14" height="22" fill-opacity="0"/></g><text fill="rgb(204, 0, 0)" stroke="none" font-family="Arial" font-size="20px" font-style="normal" font-weight="bold" text-decoration="" line-height="22.75px" x="14" y="18">V</text></g></g><g transform="matrix(1,0,0,1,65.5,106.5)"><g transform="translate(0,0)"><g transform="translate(-97,-180) translate(31.5,73.5) matrix(1,0,0,1,0,0)"><g><path fill="none" stroke="#cc0000" d="M 70 209 M 70 209 L 81.37099199288896 197.7438665120897 M 81.37099199288896 197.7438665120897 M 92.74198398577792 186.48773302417942 L 104.11297597866688 175.23159953626913 M 104.11297597866688 175.23159953626913 M 115.48396797155584 163.97546604835884 L 126.8549599644448 152.71933256044855 M 126.8549599644448 152.71933256044855 M 138.22595195733376 141.46319907253826 L 149.59694395022274 130.207065584628 M 149.59694395022274 130.207065584628 M 160.96793594311168 118.95093209671772 L 169 111" stroke-miterlimit="10" stroke-width="2"/></g></g></g></g><g transform="matrix(1,0,0,1,75.5,225.5)"><g transform="translate(0,0)"><g transform="translate(-141,-329) translate(65.5,103.5) matrix(1,0,0,1,0,0)"><g><path fill="none" stroke="#cc0000" d="M 80 230 M 80 230 L 95.64483862523855 233.35246541969397 M 95.64483862523855 233.35246541969397 M 111.2896772504771 236.70493083938794 L 126.93451587571565 240.0573962590819 M 126.93451587571565 240.0573962590819 M 142.5793545009542 243.40986167877588 L 158.22419312619274 246.76232709846985 M 158.22419312619274 246.76232709846985 M 173.8690317514313 250.11479251816382 L 189.51387037666984 253.4672579378578 M 189.51387037666984 253.4672579378578 M 205.1587090019084 256.81972335755177 L 220 260" stroke-miterlimit="10" stroke-width="2"/></g></g></g></g><g transform="matrix(1,0,0,1,162,20)"><g transform="translate(68,0) matrix(1,0,0,1,0,0) translate(-68,0)"><g><rect fill="rgb(0,0,0)" stroke="none" x="0" y="0" width="67" height="22" fill-opacity="0"/></g></g><g transform="translate(68,0) matrix(1,0,0,1,0,0) translate(-68,0)"><g><rect fill="rgb(0,0,0)" stroke="none" x="0" y="0" width="67" height="22" fill-opacity="0"/></g></g><g transform="translate(68,0) matrix(1,0,0,1,0,0) translate(-68,0)"><g><rect fill="rgb(0,0,0)" stroke="none" x="20" y="0" width="27" height="22" fill-opacity="0"/></g></g><g transform="translate(68,0) matrix(1,0,0,1,0,0) translate(-68,0)"><g><rect fill="rgb(0,0,0)" stroke="none" x="20" y="0" width="27" height="22" fill-opacity="0"/></g><text fill="rgb(17, 85, 204)" stroke="none" font-family="Arial" font-size="20px" font-style="normal" font-weight="bold" text-decoration="" line-height="22.75px" x="20" y="18">{</text><text fill="rgb(17, 85, 204)" stroke="none" font-family="Arial" font-size="20px" font-style="normal" font-weight="bold" text-decoration="" line-height="22.75px" x="39" y="18">}</text></g><g transform="translate(68,0) matrix(1,0,0,1,0,0) translate(-68,0)"><g><rect fill="rgb(0,0,0)" stroke="none" x="28" y="0" width="13" height="22" fill-opacity="0"/></g><text fill="rgb(17, 85, 204)" stroke="none" font-family="Arial" font-size="20px" font-style="italic" font-weight="bold" text-decoration="" line-height="22.75px" x="28" y="18">e</text></g></g><g transform="matrix(1,0,0,1,176,62)"><g transform="translate(148,-14) matrix(1,0,0,1,0,0) translate(-148,14)"><g><rect fill="rgb(0,0,0)" stroke="none" x="0" y="0" width="147" height="1" fill-opacity="0"/></g></g><g transform="translate(148,-14) matrix(1,0,0,1,0,0) translate(-148,14)"><g/></g><g transform="translate(148,-14) matrix(1,0,0,1,0,0) translate(-148,14)"><g><rect fill="rgb(0,0,0)" stroke="none" x="74" y="-7" width="1" height="14" fill-opacity="0"/></g></g><g transform="translate(148,-14) matrix(1,0,0,1,0,0) translate(-148,14)"><g><rect fill="rgb(0,0,0)" stroke="none" x="74" y="-7" width="1" height="14" fill-opacity="0"/></g></g><g transform="translate(148,-14) matrix(1,0,0,1,0,0) translate(-148,14)"><g/></g></g><g transform="matrix(1,0,0,1,280,94)"><g transform="translate(16,-14) matrix(1,0,0,1,0,0) translate(-16,14)"><g><rect fill="rgb(0,0,0)" stroke="none" x="0" y="0" width="16" height="1" fill-opacity="0"/></g></g><g transform="translate(16,-14) matrix(1,0,0,1,0,0) translate(-16,14)"><g/></g><g transform="translate(16,-14) matrix(1,0,0,1,0,0) translate(-16,14)"><g/></g><g transform="translate(16,-14) matrix(1,0,0,1,0,0) translate(-16,14)"><g/></g><g transform="translate(16,-14) matrix(1,0,0,1,0,0) translate(-16,14)"><g/></g></g><g transform="matrix(1,0,0,1,12,268)"><g transform="translate(68,0) matrix(1,0,0,1,0,0) translate(-68,0)"><g><rect fill="rgb(0,0,0)" stroke="none" x="0" y="0" width="67" height="22" fill-opacity="0"/></g></g><g transform="translate(68,0) matrix(1,0,0,1,0,0) translate(-68,0)"><g><rect fill="rgb(0,0,0)" stroke="none" x="0" y="0" width="67" height="22" fill-opacity="0"/></g></g><g transform="translate(68,0) matrix(1,0,0,1,0,0) translate(-68,0)"><g><rect fill="rgb(0,0,0)" stroke="none" x="20" y="0" width="27" height="22" fill-opacity="0"/></g></g><g transform="translate(68,0) matrix(1,0,0,1,0,0) translate(-68,0)"><g><rect fill="rgb(0,0,0)" stroke="none" x="20" y="0" width="27" height="22" fill-opacity="0"/></g><text fill="rgb(17, 85, 204)" stroke="none" font-family="Arial" font-size="20px" font-style="normal" font-weight="bold" text-decoration="" line-height="22.75px" x="20" y="18">{</text><text fill="rgb(17, 85, 204)" stroke="none" font-family="Arial" font-size="20px" font-style="normal" font-weight="bold" text-decoration="" line-height="22.75px" x="39" y="18">}</text></g><g transform="translate(68,0) matrix(1,0,0,1,0,0) translate(-68,0)"><g><rect fill="rgb(0,0,0)" stroke="none" x="28" y="0" width="13" height="22" fill-opacity="0"/></g><text fill="rgb(17, 85, 204)" stroke="none" font-family="Arial" font-size="20px" font-style="italic" font-weight="bold" text-decoration="" line-height="22.75px" x="28" y="18">e</text></g></g><g transform="matrix(1,0,0,1,222,200)"><g transform="translate(68,0) matrix(1,0,0,1,0,0) translate(-68,0)"><g><rect fill="rgb(0,0,0)" stroke="none" x="0" y="0" width="67" height="22" fill-opacity="0"/></g></g><g transform="translate(68,0) matrix(1,0,0,1,0,0) translate(-68,0)"><g><rect fill="rgb(0,0,0)" stroke="none" x="0" y="0" width="67" height="22" fill-opacity="0"/></g></g><g transform="translate(68,0) matrix(1,0,0,1,0,0) translate(-68,0)"><g><rect fill="rgb(0,0,0)" stroke="none" x="20" y="0" width="27" height="22" fill-opacity="0"/></g></g><g transform="translate(68,0) matrix(1,0,0,1,0,0) translate(-68,0)"><g><rect fill="rgb(0,0,0)" stroke="none" x="20" y="0" width="27" height="22" fill-opacity="0"/></g><text fill="rgb(17, 85, 204)" stroke="none" font-family="Arial" font-size="20px" font-style="normal" font-weight="bold" text-decoration="" line-height="22.75px" x="20" y="18">{</text><text fill="rgb(17, 85, 204)" stroke="none" font-family="Arial" font-size="20px" font-style="normal" font-weight="bold" text-decoration="" line-height="22.75px" x="39" y="18">}</text></g><g transform="translate(68,0) matrix(1,0,0,1,0,0) translate(-68,0)"><g><rect fill="rgb(0,0,0)" stroke="none" x="28" y="0" width="13" height="22" fill-opacity="0"/></g><text fill="rgb(17, 85, 204)" stroke="none" font-family="Arial" font-size="20px" font-style="italic" font-weight="bold" text-decoration="" line-height="22.75px" x="28" y="18">e</text></g></g><g transform="matrix(1,0,0,1,44,124)"><g transform="translate(244,0) matrix(1,0,0,1,0,0) translate(-244,0)"><g><rect fill="rgb(0,0,0)" stroke="none" x="0" y="0" width="147" height="22" fill-opacity="0"/></g></g><g transform="translate(244,0) matrix(1,0,0,1,0,0) translate(-244,0)"><g><rect fill="rgb(0,0,0)" stroke="none" x="0" y="0" width="147" height="22" fill-opacity="0"/></g></g><g transform="translate(244,0) matrix(1,0,0,1,0,0) translate(-244,0)"><g><rect fill="rgb(0,0,0)" stroke="none" x="59" y="0" width="29" height="14" fill-opacity="0"/></g></g><g transform="translate(244,0) matrix(1,0,0,1,0,0) translate(-244,0)"><g><rect fill="rgb(0,0,0)" stroke="none" x="59" y="0" width="29" height="14" fill-opacity="0"/></g></g><g transform="translate(244,0) matrix(1,0,0,1,0,0) translate(-244,0)"><g><rect fill="rgb(0,0,0)" stroke="none" x="59" y="0" width="29" height="22" fill-opacity="0"/></g><text fill="rgb(17, 85, 204)" stroke="none" font-family="Arial" font-size="20px" font-style="normal" font-weight="bold" text-decoration="" line-height="22.75px" x="59" y="18">{</text><text fill="rgb(17, 85, 204)" stroke="none" font-family="Arial" font-size="20px" font-style="normal" font-weight="bold" text-decoration="" line-height="22.75px" x="80" y="18">}</text></g><g transform="translate(244,0) matrix(1,0,0,1,0,0) translate(-244,0)"><g><rect fill="rgb(0,0,0)" stroke="none" x="67" y="0" width="15" height="22" fill-opacity="0"/></g><text fill="rgb(17, 85, 204)" stroke="none" font-family="Arial" font-size="20px" font-style="italic" font-weight="bold" text-decoration="" line-height="22.75px" x="67" y="18">E</text></g><g transform="translate(244,0) matrix(1,0,0,1,0,0) translate(-244,0)"><g/></g></g><g transform="matrix(1,0,0,1,72,219)"><g transform="translate(244,0) matrix(1,0,0,1,0,0) translate(-244,0)"><g><rect fill="rgb(0,0,0)" stroke="none" x="0" y="0" width="147" height="22" fill-opacity="0"/></g></g><g transform="translate(244,0) matrix(1,0,0,1,0,0) translate(-244,0)"><g><rect fill="rgb(0,0,0)" stroke="none" x="0" y="0" width="147" height="22" fill-opacity="0"/></g></g><g transform="translate(244,0) matrix(1,0,0,1,0,0) translate(-244,0)"><g><rect fill="rgb(0,0,0)" stroke="none" x="59" y="0" width="29" height="14" fill-opacity="0"/></g></g><g transform="translate(244,0) matrix(1,0,0,1,0,0) translate(-244,0)"><g><rect fill="rgb(0,0,0)" stroke="none" x="59" y="0" width="29" height="14" fill-opacity="0"/></g></g><g transform="translate(244,0) matrix(1,0,0,1,0,0) translate(-244,0)"><g><rect fill="rgb(0,0,0)" stroke="none" x="59" y="0" width="29" height="22" fill-opacity="0"/></g><text fill="rgb(17, 85, 204)" stroke="none" font-family="Arial" font-size="20px" font-style="normal" font-weight="bold" text-decoration="" line-height="22.75px" x="59" y="18">{</text><text fill="rgb(17, 85, 204)" stroke="none" font-family="Arial" font-size="20px" font-style="normal" font-weight="bold" text-decoration="" line-height="22.75px" x="80" y="18">}</text></g><g transform="translate(244,0) matrix(1,0,0,1,0,0) translate(-244,0)"><g><rect fill="rgb(0,0,0)" stroke="none" x="67" y="0" width="15" height="22" fill-opacity="0"/></g><text fill="rgb(17, 85, 204)" stroke="none" font-family="Arial" font-size="20px" font-style="italic" font-weight="bold" text-decoration="" line-height="22.75px" x="67" y="18">E</text></g><g transform="translate(244,0) matrix(1,0,0,1,0,0) translate(-244,0)"><g/></g></g></g></svg>